<svg baseProfile="basic" xmlns="http://www.w3.org/2000/svg" viewBox="0 0 110 116" style="height:100%" class=""><path d="M50.31 55.58c-.1 0-.21-.01-.32-.02l-35.11-4.87c-.86-.12-1.56-.7-1.84-1.53-.28-.82-.07-1.71.55-2.33l5.61-5.61-15.6-15.6c-.39-.39-.6-.9-.6-1.44s.21-1.06.6-1.44L19.74 6.6c.39-.39.9-.6 1.44-.6.55 0 1.06.21 1.44.6l15.6 15.6 5.61-5.61c.43-.43 1-.67 1.6-.67 1.15 0 2.1.82 2.26 1.96L52.56 53c.09.65-.1 1.31-.54 1.8-.43.49-1.06.78-1.71.78z"></path><path fill="#FFF" d="M21.18 6.51c.39 0 .79.15 1.09.45l15.95 15.95 5.97-5.97c.36-.36.8-.52 1.24-.52.83 0 1.63.58 1.76 1.53l4.87 35.11a1.77 1.77 0 01-1.75 2.01c-.08 0-.16-.01-.25-.02l-35.11-4.87c-1.45-.2-2.04-1.97-1.01-3l5.97-5.97L3.96 25.27c-.6-.6-.6-1.58 0-2.18L20.09 6.96c.3-.3.7-.45 1.09-.45m0-1c-.68 0-1.32.26-1.8.75L3.25 22.38c-.99.99-.99 2.6 0 3.6l15.24 15.24-5.26 5.26c-.75.75-1 1.84-.67 2.84.34 1 1.2 1.72 2.25 1.86l35.11 4.87c.13.02.26.03.39.03.8 0 1.56-.35 2.08-.95.53-.6.76-1.4.65-2.2l-4.87-35.11a2.747 2.747 0 00-2.75-2.39c-.73 0-1.42.29-1.95.81l-5.26 5.26L22.98 6.25c-.48-.48-1.12-.74-1.8-.74z"></path><path d="M88.82 109.99c-.55 0-1.06-.21-1.44-.6l-15.6-15.6-5.61 5.61c-.43.43-1 .67-1.6.67-1.15 0-2.1-.82-2.26-1.96L57.44 63c-.09-.65.1-1.31.54-1.8.43-.5 1.05-.78 1.71-.78.1 0 .21.01.32.02l35.11 4.87c.86.12 1.56.7 1.84 1.53.28.82.07 1.71-.55 2.33l-5.61 5.61 15.6 15.6c.8.8.8 2.09 0 2.89L90.26 109.4c-.38.38-.89.59-1.44.59z"></path><path fill="#FFF" d="M59.69 60.92c.08 0 .16.01.25.02l35.11 4.87c1.45.2 2.04 1.97 1.01 3l-5.97 5.97 15.95 15.95c.6.6.6 1.58 0 2.18l-16.13 16.13a1.545 1.545 0 01-2.18 0L71.78 93.09l-5.97 5.97c-.36.36-.8.52-1.24.52-.83 0-1.63-.58-1.76-1.53l-4.87-35.11c-.15-1.08.7-2.02 1.75-2.02m0-1c-.8 0-1.56.35-2.08.95-.53.6-.76 1.4-.65 2.2l4.87 35.11a2.747 2.747 0 002.75 2.39c.73 0 1.42-.29 1.95-.81l5.26-5.26 15.24 15.24c.48.48 1.12.74 1.8.74s1.32-.26 1.8-.74l16.13-16.13c.99-.99.99-2.6 0-3.6L91.51 74.78l5.26-5.26c.75-.75 1-1.84.67-2.84s-1.2-1.72-2.25-1.86l-35.11-4.87c-.14-.02-.26-.03-.39-.03z"></path><g><path d="M21.18 109.99c-.55 0-1.06-.21-1.44-.6L3.6 93.26c-.8-.8-.8-2.09 0-2.89l15.6-15.6-5.61-5.61c-.61-.61-.82-1.5-.55-2.33.28-.82.98-1.41 1.84-1.53l35.11-4.87c.11-.01.21-.02.32-.02.65 0 1.28.28 1.71.78.43.49.63 1.15.54 1.8L47.69 98.1a2.259 2.259 0 01-2.26 1.96c-.6 0-1.17-.24-1.6-.67l-5.61-5.61-15.6 15.6c-.38.4-.89.61-1.44.61z"></path><path fill="#FFF" d="M50.31 60.92c1.05 0 1.9.93 1.75 2.01l-4.87 35.11c-.13.95-.93 1.53-1.76 1.53-.44 0-.88-.16-1.24-.52l-5.97-5.97-15.95 15.95a1.545 1.545 0 01-2.18 0L3.96 92.91c-.6-.6-.6-1.58 0-2.18l15.95-15.95-5.97-5.97c-1.03-1.03-.44-2.8 1.01-3l35.11-4.87c.09-.01.17-.02.25-.02m0-1c-.13 0-.26.01-.39.03l-35.11 4.87c-1.05.15-1.91.86-2.25 1.86s-.08 2.09.67 2.84l5.26 5.26L3.25 90.02c-.99.99-.99 2.6 0 3.6l16.13 16.13c.48.48 1.12.74 1.8.74s1.32-.26 1.8-.74l15.24-15.24 5.26 5.26c.52.52 1.22.81 1.95.81 1.4 0 2.56-1.01 2.75-2.39l4.87-35.11a2.8 2.8 0 00-.65-2.2c-.53-.61-1.29-.96-2.09-.96z"></path></g><g><path d="M59.69 55.58c-.65 0-1.28-.28-1.71-.78-.43-.49-.63-1.15-.54-1.8l4.87-35.11a2.259 2.259 0 012.26-1.96c.6 0 1.17.24 1.6.67l5.61 5.61 15.6-15.6c.39-.39.9-.6 1.44-.6.55 0 1.06.21 1.44.6l16.13 16.13c.39.39.6.9.6 1.44s-.21 1.06-.6 1.44l-15.6 15.6 5.61 5.61c.61.61.82 1.51.55 2.33a2.27 2.27 0 01-1.84 1.53L60 55.56c-.1.01-.21.02-.31.02z"></path><path fill="#FFF" d="M88.82 6.51c.39 0 .79.15 1.09.45l16.13 16.13c.6.6.6 1.58 0 2.18L90.09 41.22l5.97 5.97c1.03 1.03.44 2.8-1.01 3l-35.11 4.87c-.08.01-.17.02-.25.02-1.05 0-1.9-.93-1.75-2.01l4.87-35.11c.13-.95.93-1.53 1.76-1.53.44 0 .88.16 1.24.52l5.97 5.97L87.73 6.96c.3-.3.7-.45 1.09-.45m0-1c-.68 0-1.32.26-1.8.75L71.78 21.49l-5.26-5.26c-.52-.52-1.22-.81-1.95-.81-1.4 0-2.56 1.01-2.75 2.39l-4.87 35.11a2.8 2.8 0 00.65 2.2c.53.6 1.29.95 2.08.95.13 0 .26-.01.39-.03l35.11-4.87c1.05-.15 1.91-.86 2.25-1.86.34-1 .08-2.09-.67-2.84l-5.26-5.26 15.24-15.24c.99-.99.99-2.6 0-3.6L90.62 6.25c-.48-.48-1.12-.74-1.8-.74z"></path></g><g><path fill="#FFF" d="M15.68 48.27l7.06-7.05L5.7 24.18 21.18 8.7l17.04 17.04 7.05-7.06 4.77 34.36z"></path><path d="M21.18 11.52l14.21 14.21 2.83 2.83 2.83-2.83 2.8-2.8 3.85 27.75-27.75-3.85 2.8-2.8 2.83-2.83-2.83-2.83L8.52 24.18l12.66-12.66m0-5.01c-.39 0-.79.15-1.09.45L3.96 23.09c-.6.6-.6 1.58 0 2.18l15.95 15.95-5.97 5.97c-1.03 1.03-.44 2.8 1.01 3l35.11 4.87c.08.01.17.02.25.02 1.05 0 1.9-.93 1.75-2.01l-4.87-35.11c-.13-.95-.93-1.53-1.76-1.53-.44 0-.88.16-1.24.52l-5.97 5.97L22.27 6.96c-.3-.3-.7-.45-1.09-.45z"></path><path fill="#FFF" d="M71.78 90.26l-7.05 7.06-4.77-34.36 34.36 4.77-7.06 7.05 17.04 17.04-15.48 15.48z"></path><path d="M62.31 65.31l27.75 3.85-2.8 2.8-2.83 2.83 2.83 2.83 14.21 14.21-12.66 12.66-14.2-14.23-2.83-2.83-2.83 2.83-2.8 2.8-3.84-27.75m-2.62-4.39c-1.05 0-1.9.93-1.75 2.01l4.87 35.11c.13.95.93 1.53 1.76 1.53.44 0 .88-.16 1.24-.52l5.97-5.97 15.95 15.95a1.545 1.545 0 002.18 0l16.13-16.13c.6-.6.6-1.58 0-2.18L90.09 74.78l5.97-5.97c1.03-1.03.44-2.8-1.01-3l-35.11-4.87c-.09-.01-.17-.02-.25-.02z"></path><g><path fill="#FFF" d="M5.7 91.82l17.04-17.04-7.06-7.05 34.36-4.77-4.77 34.36-7.05-7.06-17.04 17.05z"></path><path d="M47.69 65.31l-3.85 27.75-2.8-2.8-2.83-2.83-2.83 2.83-14.21 14.21L8.52 91.82l14.21-14.21 2.83-2.83-2.83-2.83-2.8-2.8 27.76-3.84m2.62-4.39c-.08 0-.16.01-.25.02l-35.11 4.87c-1.45.2-2.04 1.97-1.01 3l5.97 5.97L3.96 90.73c-.6.6-.6 1.58 0 2.18l16.13 16.13a1.545 1.545 0 002.18 0l15.95-15.95 5.97 5.97c.36.36.8.52 1.24.52.83 0 1.63-.58 1.76-1.53l4.87-35.11c.15-1.08-.7-2.02-1.75-2.02z"></path></g><g><path fill="#FFF" d="M64.73 18.68l7.05 7.06L88.82 8.7l15.48 15.48-17.04 17.04 7.06 7.05-34.36 4.77z"></path><path d="M88.82 11.52l12.66 12.66-14.22 14.21-2.83 2.83 2.83 2.83 2.8 2.8-27.75 3.85 3.85-27.75 2.8 2.8 2.83 2.83 2.83-2.83 14.2-14.23m0-5.01c-.39 0-.79.15-1.09.45L71.78 22.91l-5.97-5.97c-.36-.36-.8-.52-1.24-.52-.83 0-1.63.58-1.76 1.53l-4.87 35.11a1.77 1.77 0 001.75 2.01c.08 0 .16-.01.25-.02l35.11-4.87c1.45-.2 2.04-1.97 1.01-3l-5.97-5.97 15.95-15.95c.6-.6.6-1.58 0-2.18L89.91 6.96c-.3-.3-.7-.45-1.09-.45z"></path></g></g></svg>