<svg xmlns="http://www.w3.org/2000/svg" viewBox="0 0 327 57" class=""><path d="M48.51 34a3 3 0 01-3 .21c-1.08-.65-1.74-2.11-1.74-4.12v-6.15c0-2.94-1.14-5.06-3.09-5.6-3.32-1-5.82 3.1-6.74 4.62l-5.87 9.4V20.79c0-2.67-.92-4.24-2.55-4.73-1.09-.33-2.72-.16-4.29 2.23l-13.1 21A23.18 23.18 0 015.48 28.5a22.8 22.8 0 0122.6-22.93 22.8 22.8 0 0122.6 22.93v.11C50.79 31.05 50 33 48.51 34zm7.17-5.49v-.11A27.88 27.88 0 0028.08.47a27.84 27.84 0 00-27.6 28 27.87 27.87 0 0027.6 28A27.15 27.15 0 0046.83 49a2.52 2.52 0 00.1-3.59 2.49 2.49 0 00-3.53-.16v.05a22.33 22.33 0 01-32.16-1.46L23 25v8.75c0 4.18 1.63 5.54 3 5.92s3.43.11 5.65-3.43l6.47-10.48a6 6 0 01.6-.87v5.32c0 3.92 1.57 7.07 4.29 8.59a7.88 7.88 0 008.09-.33c3.11-2.09 4.8-5.68 4.58-9.97zm38.47-9.56a2.72 2.72 0 011.25 2.12 2.41 2.41 0 01-2.34 2.39 3.73 3.73 0 01-.87-.17 9 9 0 00-5.27-1.79c-4.62 0-7.77 3.75-7.77 8.42s3.21 8.37 7.77 8.37a8.43 8.43 0 005.87-2.39 2.4 2.4 0 011.36-.44 2.21 2.21 0 012.23 2.23 2.3 2.3 0 01-1.09 1.9A12.9 12.9 0 1187 16.76a12.36 12.36 0 017.15 2.18zm12.93 5.43a9 9 0 018.85 9.13c0 5-4.07 9.29-8.85 9.29a9.35 9.35 0 01-9.24-9.29 9.21 9.21 0 019.24-9.14zm-.08 13.9c2.12 0 3.92-2 3.92-4.73s-1.8-4.45-3.92-4.45a4.15 4.15 0 00-4.18 4.45 4.47 4.47 0 004.18 4.73zM119 40V27.14a2.5 2.5 0 012.5-2.55 2.54 2.54 0 012.5 2.55V40a2.54 2.54 0 01-2.49 2.56A2.58 2.58 0 01119 40zm-.38-20.21a2.93 2.93 0 012.88-3 3 3 0 012.93 3 2.91 2.91 0 11-5.81 0zM133.54 33v7a2.5 2.5 0 11-5 0V26.54a1.93 1.93 0 113.86 0 7.24 7.24 0 015.48-2.17c5 0 7.23 3.75 7.23 8V40a2.5 2.5 0 11-5 0v-7c0-2.17-.27-4-3.42-4-2.23 0-3.15 1.85-3.15 4zm27.76 2.66A1.6 1.6 0 01160 35l-5.82-6.3V40a2.5 2.5 0 11-5 0V17.69a1.07 1.07 0 01.93-.65 1.75 1.75 0 011.08.65l9.29 10.43a1.22 1.22 0 00.82.49 1.31 1.31 0 00.81-.49l9.3-10.43a1.6 1.6 0 011.08-.65 1 1 0 01.93.65V40a2.51 2.51 0 01-2.5 2.56 2.54 2.54 0 01-2.5-2.56V28.72L162.6 35a2 2 0 01-1.3.65zm24 2.61c2.23 0 4.13-2 4.13-4.73a4.26 4.26 0 00-4.12-4.54c-2.17 0-4 1.85-4 4.51s1.78 4.77 4 4.77zm5.33 2.28l-.11-.6c-1 1.91-4.08 2.77-6 2.77-4.67 0-8.15-4.23-8.15-9.29s3.53-9.12 8.42-9.12a7.77 7.77 0 015.81 2.77l.11-.6a1.91 1.91 0 011.9-2 2 2 0 012 2v14a2 2 0 01-2 2 1.86 1.86 0 01-2-1.9zM208.3 29h-.55c-3.15.16-3.75 2-3.75 4v7a2.5 2.5 0 11-5 0V26.54a2 2 0 012-1.95 1.93 1.93 0 011.9 1.95 7 7 0 014.89-2.17h.49a2.34 2.34 0 012.28 2.34A2.28 2.28 0 01208.3 29zm19.28 9.78A2.36 2.36 0 01228 40a2.6 2.6 0 01-2.5 2.5 3.05 3.05 0 01-2.22-1.41l-5.76-6.68v5.54a2.5 2.5 0 11-5 0V19.54a2.5 2.5 0 115 0v12.71l5.76-6.36a3.25 3.25 0 012.17-1.36A2.5 2.5 0 01227.8 27a2.13 2.13 0 01-.33 1.14l-4.56 5 4.67 5.65zm9.78-9.78c-1.36 0-3.58.71-3.58 2.83H241c0-2.08-2.33-2.83-3.64-2.83zm6.52 6h-10.1c0 3 2.88 3.48 4.13 3.48a8 8 0 003.25-.65 2.47 2.47 0 011.31-.38 2 2 0 012 2.06 2.21 2.21 0 01-1.09 1.8 9 9 0 01-5.38 1.48c-5.05 0-9.24-2.72-9.24-9.07 0-5 2.56-9.35 8.53-9.35 4.84 0 8.48 3.15 8.59 8.75a2 2 0 01-2 2zm13.91 7.66h-1.36c-3.8 0-6-1.68-6-7.6V29h-1.3a2.31 2.31 0 010-4.62h1.3v-4.74a2.51 2.51 0 012.5-2.55 2.54 2.54 0 012.5 2.55v4.73h2.06a2.3 2.3 0 012.23 2.34 2.37 2.37 0 01-2.26 2.29h-2.06v5.16c0 3.42.16 4.13 1.68 4.13h.71a2.24 2.24 0 012.21 2.22 2.27 2.27 0 01-2.23 2.22zM282 18.94a2.72 2.72 0 011.25 2.12 2.41 2.41 0 01-2.34 2.39 3.73 3.73 0 01-.87-.17 9 9 0 00-5.27-1.79c-4.62 0-7.77 3.75-7.77 8.42s3.21 8.37 7.77 8.37a8.43 8.43 0 005.87-2.39 2.4 2.4 0 011.36-.44 2.2 2.2 0 012.22 2.23 2.29 2.29 0 01-1.08 1.9 12.9 12.9 0 11-8.31-22.82 12.23 12.23 0 017.17 2.18zm12.66 19.34c2.22 0 4.12-2 4.12-4.73a4.26 4.26 0 00-4.15-4.55c-2.23 0-4 1.85-4 4.51s1.79 4.73 4 4.73zm5.34 2.28l-.11-.6c-1 1.91-4.07 2.77-6 2.77-4.67 0-8.15-4.23-8.15-9.29s3.53-9.12 8.42-9.12a7.8 7.8 0 015.82 2.77l.1-.6a1.91 1.91 0 011.91-2 2 2 0 011.95 2v14a2 2 0 01-1.95 2 1.87 1.87 0 01-1.99-1.93zm17.55-2.28c2.23 0 4-2.12 4-4.73s-1.79-4.51-4-4.51a4.23 4.23 0 00-4.13 4.51c-.05 2.72 1.85 4.73 4.08 4.73zm-4.13 3v6.35a2.5 2.5 0 11-5 0V26.54a2 2 0 012-1.95 2 2 0 011.9 2.17 8 8 0 015.87-2.39c4.83 0 8.42 4.08 8.42 9.13s-3.43 9.29-8.15 9.29a9.66 9.66 0 01-5-1.52z" fill="#fff" data-name="Layer 1"></path></svg>