<svg baseProfile="basic" xmlns="http://www.w3.org/2000/svg" viewBox="0 0 279 77" class=""><g fill-rule="evenodd" clip-rule="evenodd"><path fill="#AAACBD" d="M38.46.18c21.21 0 38.32 17.11 38.32 38.42 0 21.01-17.31 38.32-38.62 38.22C17.55 76.62.24 59.61.24 38.5.24 17.29 17.25.08 38.46.18zM9.34 58.51c0 .4.2.6.4.9 1.5 2.1 3.2 4.1 5.2 5.8.9.8 1.8 1.6 2.8 2.3 2.8 1.8 5.7 3.5 8.9 4.6 2.6.9 5.3 1.6 8 1.9 2.1.2 4.3.3 6.4 0 1.2-.2 2.5-.2 3.7-.7.2.1.3-.1.4-.1 2.5-.4 4.9-1.2 7.3-2.2 7.8-3.4 13.71-8.9 17.51-16.51 3.4-6.7 4.5-13.81 3.4-21.21-1-7.1-4-13.31-8.8-18.51-6.4-7.3-14.61-11.1-24.31-11.71-4.3-.3-8.6.3-12.71 1.7-6.7 2.2-12.21 6-16.71 11.51-5.1 6.3-7.6 13.51-7.9 21.51-.1 2 .1 3.9.4 5.9.6 4.5 2.1 8.8 4.4 12.71.62.61 1.02 1.41 1.62 2.11z"></path><path fill="#A9ABBC" d="M44.76 73.22c-1.2.6-2.5.6-3.7.7-2.1.3-4.3.2-6.4 0-2.7-.3-5.4-1-8-1.9-3.2-1.1-6.1-2.8-8.9-4.6-1-.7-1.9-1.5-2.8-2.3-2-1.7-3.7-3.7-5.2-5.8-.2-.3-.4-.6-.4-.9 2.4-5.4 3.3-11.1 3.8-16.91.2-2.7.3-5.4.8-8.1.5-3.1 1.7-5.9 3.9-8.3 2-2.1 4.5-3.5 7.2-4.5 2.2-.9 4.5-1.7 7-1.8 2.3-.1 4.5.2 6.7.7 3.3.8 6.6 1.8 9.7 3.3 2.5 1 5.1 2 7.7 2.8 2.7.8 5.4 1.7 7.7 3.4 2.9 2.2 3.7 5 2.4 8.4-.8 2.1-2.3 3.7-3.8 5.3-2.7 2.8-5.6 5.4-8.2 8.3-3 3.5-5.7 7.1-7.6 11.31-1.6 3.49-2.5 7.09-1.9 10.9zM64.07 40.3c-.1 0-.2 0-.3.1-.1 0-.2.1-.2.2v.1c.1 0 .2-.1.2-.2l.3-.2c.1 0 .2 0 0 0 .1-.1 0 0 0 0zM33.45 22.89c-3.8 0-6.9 3.1-6.9 6.8 0 3.8 3.1 6.8 6.8 6.9 3.8 0 6.8-3.1 6.9-6.9.01-3.8-3-6.8-6.8-6.8zm5.61 21.01c.6.9 1.7 1.7 3 2.1 2.6.9 5.2.9 7.8.4 4.6-.9 8.9-2.5 12.81-5.1.2-.2.6-.2.7-.6-.2-.1-.3 0-.4.1-1.3.8-2.7 1.4-4.1 2-3.6 1.5-7.4 2.5-11.41 2.7-2.9.2-5.8 0-8.4-1.6zm18.9-5.9c.8 0 1.5-.7 1.5-1.6 0-.8-.7-1.5-1.6-1.4-.8 0-1.4.7-1.4 1.5 0 .9.6 1.5 1.5 1.5z"></path><path fill="#DADDEC" d="M38.66 19.49c-2.2-.4-4.4-.8-6.7-.7-2.5.1-4.7.9-7 1.8-2.7 1-5.2 2.4-7.2 4.5-2.2 2.3-3.4 5.1-3.9 8.3-.4 2.7-.5 5.4-.8 8.1-.5 5.8-1.4 11.61-3.8 16.91-.7-.6-1.1-1.5-1.5-2.2-2.3-3.9-3.8-8.2-4.4-12.71-.3-2-.5-3.9-.4-5.9.3-8 2.8-15.21 7.9-21.51 4.4-5.5 10-9.3 16.71-11.51 4.1-1.3 8.4-1.9 12.71-1.7 9.6.6 17.81 4.5 24.31 11.61 4.8 5.3 7.7 11.51 8.8 18.51 1.1 7.4 0 14.51-3.4 21.21-3.8 7.6-9.7 13.11-17.51 16.51-2.3 1-4.7 1.8-7.3 2.2-.2 0-.3.3-.4.1-.6-3.8.3-7.4 1.8-10.9 1.9-4.2 4.6-7.8 7.6-11.31 2.5-2.9 5.4-5.6 8.2-8.3 1.6-1.6 3-3.2 3.8-5.3 1.4-3.4.6-6.2-2.4-8.4-2.3-1.7-5-2.6-7.7-3.4-2.6-.8-5.2-1.8-7.7-2.8-.5-1.7-1.7-2.8-3.3-3.4-2.12-.51-4.22-.31-6.42.29zM71.37 40.8h.2c.4-1.4.4-2.9.4-4.4 0-1.7-.2-3.4-.5-5.1-1.1-5.5-3.6-10.3-7.5-14.41-2.4-2.5-5.1-4.6-7.8-6.8-2.4-2-5-3.5-8-4.3-2.9-.7-5.7-1.1-8.7-.6-.2 0-.4 0-.4.2s.2.2.4.2c4.4.8 8.6 2.2 12.71 3.8 4 1.6 7.4 3.9 9.9 7.5 1.7 2.5 3.3 5.1 4.6 7.9 1.7 3.8 3 7.7 3.8 11.71.39 1.6.69 2.9.89 4.3z"></path><path fill="#FBFCFA" d="M33.45 22.89c3.8 0 6.8 3.1 6.8 6.8 0 3.8-3.1 6.8-6.9 6.9-3.8 0-6.8-3.1-6.8-6.9 0-3.8 3.1-6.8 6.9-6.8zm4.81 6.91c0-2.7-2.1-4.8-4.8-4.8-2.7 0-4.8 2.1-4.8 4.8 0 2.6 2.1 4.8 4.7 4.8h.1c2.59 0 4.7-2.1 4.8-4.8z"></path><path fill="#7F8192" d="M39.06 43.9c2.6 1.6 5.5 1.8 8.4 1.7 4-.2 7.8-1.1 11.41-2.7 1.4-.6 2.8-1.2 4.1-2 .1-.1.2-.2.4-.1-.1.3-.4.4-.7.6-3.9 2.6-8.2 4.2-12.81 5.1-2.6.5-5.3.5-7.8-.4-1.3-.5-2.5-1.3-3-2.2zm-.4-24.41c2.1-.6 4.3-.8 6.4 0 1.6.6 2.8 1.7 3.3 3.4-3-1.6-6.3-2.6-9.7-3.4z"></path><path fill="#FBFCFA" d="M57.96 38c-.8 0-1.5-.7-1.5-1.5s.6-1.5 1.4-1.5 1.5.6 1.6 1.4c-.1.9-.7 1.6-1.5 1.6z"></path><path fill="#A9ABBC" d="M63.77 40.5c0 .1-.1.2-.2.2 0-.2.1-.3.2-.2zm.3-.2l-.3.2-.1-.1c.2-.1.3-.1.4-.1z"></path><path fill="#FFFDFB" d="M71.37 40.8c-.3-1.4-.6-2.7-.8-4.1-.8-4.1-2.2-8-3.8-11.71-1.2-2.8-2.8-5.4-4.6-7.9-2.5-3.6-5.8-5.9-9.9-7.5-4.2-1.6-8.3-3.1-12.71-3.8-.2 0-.4 0-.4-.2s.2-.2.4-.2c2.9-.5 5.8-.2 8.7.6 3 .8 5.6 2.4 8 4.3 2.7 2.2 5.4 4.3 7.8 6.8 3.9 4.1 6.4 8.9 7.5 14.41.3 1.7.5 3.4.5 5.1 0 1.4 0 2.9-.4 4.4l-.29-.2z"></path><path fill="#7F8192" d="M38.26 29.8c0 2.6-2.1 4.8-4.7 4.8h-.1c-2.6 0-4.8-2.1-4.8-4.8v-.1c0-2.7 2.2-4.8 4.8-4.8 2.59-.01 4.8 2.19 4.8 4.9z"></path><path fill="#FFF" d="M190.02 49.1c-.1.1-.2.1-.3.2-3.1 3.5-7 4.1-11.2 3-5.2-1.3-8-5-9.1-10.1-.7-3.3-.5-6.6.8-9.7 2.3-5.5 7.5-8.5 13.41-7.7 2.7.4 5.2 1.3 7.1 3.3 1.4 1.5 2.2 3.3 2.5 5.3.1.4-.1.5-.4.5h-3.7c-.3 0-.4-.1-.5-.4-.6-2.7-2.4-4.2-5-4.7-3-.6-5.6 0-7.6 2.4-1.8 2.2-2.3 4.9-2.3 7.7 0 2.1.4 4.1 1.3 5.9 2.1 4 7.3 5.4 11.2 3.1 2.2-1.3 2.9-3.4 3.1-5.8 0-.5-.3-.4-.6-.4h-5.9c-.6 0-.7-.2-.7-.7v-2.3c0-.5.2-.6.6-.6h10.3c.4 0 .6.1.6.5v13.11c0 .4-.1.5-.5.5-.8 0-1.8.2-2.4-.1-.6-.4-.4-1.4-.6-2.2-.01-.31-.11-.61-.11-.81zm-79.23-15.2h-1.9c-.4 0-.5-.1-.6-.5-.8-2.8-2.6-4.5-5.5-4.8-3.2-.3-5.9.7-7.5 3.6-2.4 4.4-2.3 8.9.1 13.21 1.6 2.9 5.1 4.2 8.3 3.3 2.8-.8 4.1-2.9 4.7-5.6.2-1.1.2-1.1 1.3-1.1h3c.4 0 .5.1.4.5-.5 5.3-3.9 9.4-9.1 10.2-7.5 1.2-13.71-3.4-14.91-10.9-.5-3.3-.2-6.5 1.1-9.6 2.3-5.2 7.4-8 13.11-7.3 2.7.4 5.2 1.3 7.2 3.3 1.4 1.5 2.2 3.3 2.5 5.3.1.4 0 .5-.4.5-.5-.21-1.2-.11-1.8-.11zm147.26 18.21h-4.8c-.4 0-.6-.2-.7-.5-1.7-2.8-3.5-5.5-5.2-8.3-.3-.5-.4-.5-.9-.1-1.7 1.2-2.4 2.8-2.1 4.9.2 1.1 0 2.3 0 3.5 0 .5-.2.6-.6.6h-3c-.5 0-.6-.2-.6-.7V39.1 26.09c0-.7.2-.9.9-.8.9.1 1.8.1 2.7 0 .6 0 .7.2.7.7V40.3l.2.1c.3-.4.7-.8 1-1.2 2-2.1 4-4.1 6.1-6.2.2-.2.4-.4.7-.4h4.8c0 .3-.3.4-.4.6-2.1 2-4.1 4-6.3 6-.5.4-.5.7-.1 1.3l7.2 10.8c0 .31.2.51.4.81zm-49.42-8.61h-6.5c-.5 0-.6.1-.6.6.2 3.9 3.8 6.3 7.4 4.8 1-.4 1.8-1.2 2.2-2.3.2-.5.5-.6.9-.6h2.8c.5 0 .6.1.4.6-1.1 3.5-3.5 5.4-7.1 5.9-3.2.5-6.2-.2-8.5-2.6-1.6-1.7-2.3-3.9-2.5-6.2-.2-2.8.2-5.5 2-7.9 2.3-3 5.4-4.1 9-3.5 3.8.7 6.1 3.1 7.2 6.7.4 1.3.5 2.6.4 4 0 .5-.2.6-.6.6-2.1-.1-4.3-.1-6.5-.1zm-2.1-2.8h4.4c.5 0 .6-.1.5-.6-.4-2.6-2.3-4.5-4.8-4.6-2.6-.1-4.7 1.7-5.1 4.4-.1.5 0 .7.6.7 1.5.1 2.9.1 4.4.1zm-90.54 1.7c0-1.2.2-2.5.5-3.7 1.3-4.2 5-6.8 9.6-6.5 3.5.2 6.4 1.4 8.1 4.5 2 3.8 2 7.8-.1 11.51-1.9 3.5-5.2 4.6-9 4.4-5.7-.3-9.1-4.21-9.1-10.21zm4.3 0c0 1.7.3 3.2 1.3 4.6 1.6 2.3 4.7 3 7 1.4.5-.4 1-.8 1.4-1.3 1.7-2.5 1.8-6.7 0-9.3-2.1-3-6.5-3-8.5.1-.9 1.3-1.2 2.9-1.2 4.5zm138.86.1c0-2.8.6-5.3 2.5-7.4 1.9-2.2 4.5-3 7.3-3s5.4.8 7.4 3c2.1 2.4 2.6 5.3 2.4 8.4-.1 1.1-.3 2.2-.7 3.2-1.5 3.9-5.1 6.1-9.7 5.8-5.4-.3-8.8-3.8-9.1-9.2 0-.2-.1-.6-.1-.8zm15.31.2c0-2-.5-3.7-1.2-4.9-1.5-2.4-4.7-3-7-1.5-.6.4-1.1.9-1.5 1.5-1.7 2.5-1.6 6.7 0 9.1 1.6 2.3 4.7 3 7 1.4.6-.4 1-.8 1.4-1.4 1-1.3 1.3-2.9 1.3-4.2zm-122.25-7.3c1.2-1.5 2.6-2.6 4.5-3.1 1.7-.4 3.4-.3 5 .4 2.4 1 3.4 3.1 3.5 5.6.1 4.4 0 8.8 0 13.21 0 .5-.1.6-.6.6h-3c-.5 0-.7-.1-.7-.7v-11.2c0-.8-.1-1.6-.3-2.3-.6-2-2.5-2.8-4.8-2.2-2 .6-3.3 2.4-3.3 4.7v10.9c0 .6-.1.9-.8.8-.9-.1-1.9-.1-2.8 0-.5 0-.7-.1-.7-.7v-8.3-9.6c0-.7.2-.9.9-.8.9.1 1.7 0 2.6 0 .5 0 .7.1.6.6-.1.69-.1 1.39-.1 2.09zm82.03 3.8h-.3c-1.1.1-1.8 0-2.3-1.3-1.2-3-6-3.1-8-.3-.7.9-1 2-1.2 3.2-.2 1.9-.2 3.8.6 5.6 1 2.2 2.8 3.2 5.1 2.9 1.9-.3 3.2-1.5 3.7-3.6.1-.6.4-.8 1-.7h2.9c.5 0 .6.2.5.6-1 4.8-4.4 7.5-9.4 7.2-5-.3-8.3-3.6-8.7-8.7-.2-2.2 0-4.4.9-6.5 1.5-3.5 4.9-5.5 8.9-5.3 2.4.1 4.6.7 6.4 2.4 1.1 1.1 1.7 2.5 2 4 .1.5-.1.7-.6.6-.4-.1-.9-.1-1.5-.1zm-90.74 3.3v8.7c0 .8-.2 1-.9.9-.9-.1-1.7-.1-2.6 0-.6 0-.8-.1-.8-.8V35.69v-2.4c0-.5.1-.6.6-.6h3c.6 0 .8.1.8.8-.1 3.01-.1 6.01-.1 9.01zm-2-17.21c.6.1 1.5-.3 1.9.1.4.4.1 1.3.1 2 0 .6.3 1.4-.1 1.8-.4.4-1.2.1-1.8.1-.8 0-1.8.3-2.3-.1-.4-.5-.1-1.5-.1-2.2 0-1.7 0-1.7 1.7-1.7h.6z"></path></g></svg>