<svg baseProfile="basic" xmlns="http://www.w3.org/2000/svg" style="height:100%" viewBox="0 0 130 59" class=""><g fill="#FFF"><path d="M17.72 16.17H8.91c-4.92 0-8.91 3.98-8.91 8.9v8.81c0 4.92 3.99 8.91 8.91 8.91h17.72V25.07c-.01-4.92-4-8.9-8.91-8.9zm3.13 20.85H8.7c-1.62 0-2.93-1.31-2.93-2.93v-9.22c0-1.62 1.31-2.93 2.93-2.93h9.22c1.62 0 2.93 1.31 2.93 2.93v12.15zM52.18 16.17h-8.81c-4.92 0-8.91 3.99-8.91 8.91v8.81c0 4.92 3.99 8.91 8.91 8.91h17.72V25.07c-.01-4.92-4-8.9-8.91-8.9zm3.13 20.85H43.16c-1.62 0-2.93-1.31-2.93-2.93v-9.22c0-1.62 1.31-2.93 2.93-2.93h9.22c1.62 0 2.93 1.31 2.93 2.93v12.15zM103.38 25.07v17.72h17.72c4.92 0 8.91-3.99 8.91-8.91v-8.81c0-4.92-3.99-8.91-8.91-8.91h-8.81c-4.92.01-8.91 3.99-8.91 8.91zm5.77-.2c0-1.62 1.31-2.93 2.93-2.93h9.22c1.62 0 2.93 1.31 2.93 2.93v9.22c0 1.62-1.31 2.93-2.93 2.93h-12.15V24.87zM68.92 25.07v17.72h17.72c4.92 0 8.91-3.99 8.91-8.91v-8.81c0-4.92-3.99-8.91-8.91-8.91h-8.81c-4.92.01-8.91 3.99-8.91 8.91zm5.77-.2c0-1.62 1.31-2.93 2.93-2.93h9.22c1.62 0 2.93 1.31 2.93 2.93v9.22c0 1.62-1.31 2.93-2.93 2.93H74.69V24.87zM20.85.42h5.77V11.6h-5.77zM68.92 47.4h5.77v11.18h-5.77zM103.38 47.4h5.77v11.18h-5.77z"></path></g></svg>