<svg baseProfile="basic" xmlns="http://www.w3.org/2000/svg" viewBox="0 0 290 49" class=""><g fill="#FFF"><path d="M76.27 39.72H64.71V8.76h11.56c4.27 0 7.82 1.48 10.64 4.45 2.83 2.96 4.24 6.64 4.24 11.03s-1.41 8.07-4.24 11.04c-2.83 2.96-6.37 4.44-10.64 4.44zm-5.62-25.34V34.1h5.11c2.72 0 4.93-.93 6.65-2.79C84.14 29.46 85 27.1 85 24.24c0-2.89-.86-5.26-2.58-7.1-1.72-1.84-3.94-2.76-6.65-2.76h-5.12zM104.83 16.46c2.72 0 4.92.75 6.61 2.26 1.69 1.5 2.54 3.7 2.54 6.59v14.42h-5.61v-2.79c-1.69 2.15-3.95 3.23-6.78 3.23-2.02 0-3.69-.6-5.01-1.79-1.32-1.19-1.97-2.78-1.97-4.75 0-4.28 2.76-6.72 8.27-7.34l3.49-.35c1.33-.09 2-.69 2-1.81 0-.83-.33-1.49-.98-1.99-.65-.5-1.49-.75-2.52-.75-1.11 0-2.02.3-2.72.91-.71.6-1.16 1.45-1.35 2.54l-5.57-1.33c.3-2.03 1.32-3.72 3.03-5.04 1.72-1.35 3.91-2.01 6.57-2.01zm-1.87 18.97c1.47 0 2.74-.53 3.8-1.59 1.07-1.06 1.6-2.28 1.6-3.67v-.49c-.28.24-.91.43-1.91.57l-3.62.44c-.8.12-1.44.39-1.91.82-.47.43-.71.97-.71 1.61 0 .68.25 1.23.75 1.66.5.44 1.17.65 2 .65zM131.73 16.46c2.94 0 5.39 1.14 7.36 3.41 1.97 2.27 2.95 5.09 2.95 8.45s-.98 6.18-2.95 8.45c-1.97 2.27-4.42 3.41-7.36 3.41-2.74 0-5.02-1.05-6.82-3.14v11.54h-5.61V16.9h5.61v2.7c1.8-2.1 4.07-3.14 6.82-3.14zm-5.2 16.43c1.08 1.22 2.42 1.84 4.03 1.84 1.61 0 2.95-.61 4.03-1.84 1.08-1.22 1.62-2.75 1.62-4.58s-.54-3.35-1.62-4.56c-1.08-1.21-2.43-1.81-4.03-1.81-1.61 0-2.95.61-4.03 1.84-1.08 1.22-1.62 2.74-1.62 4.53 0 1.83.54 3.36 1.62 4.58zM159.17 16.46c2.94 0 5.39 1.14 7.36 3.41 1.97 2.27 2.95 5.09 2.95 8.45s-.98 6.18-2.95 8.45c-1.97 2.27-4.42 3.41-7.36 3.41-2.74 0-5.02-1.05-6.82-3.14v11.54h-5.61V16.9h5.61v2.7c1.8-2.1 4.07-3.14 6.82-3.14zm-5.2 16.43c1.08 1.22 2.43 1.84 4.03 1.84 1.61 0 2.95-.61 4.03-1.84 1.08-1.22 1.62-2.75 1.62-4.58s-.54-3.35-1.62-4.56c-1.08-1.21-2.43-1.81-4.03-1.81-1.61 0-2.95.61-4.03 1.84-1.08 1.22-1.62 2.74-1.62 4.53 0 1.83.54 3.36 1.62 4.58zM190.51 28.09l7.23 11.63h-7.07l-6.82-11.01h-3.74v11.01h-5.95V8.76h12.51c3.08 0 5.56.94 7.44 2.81 1.88 1.87 2.83 4.25 2.83 7.14 0 2.21-.58 4.16-1.73 5.84-1.13 1.68-2.7 2.86-4.7 3.54zm-3.82-13.71h-6.57v8.54h6.57c1.25 0 2.25-.4 3.01-1.19.76-.8 1.14-1.81 1.14-3.05s-.38-2.26-1.14-3.07c-.76-.83-1.76-1.23-3.01-1.23zM211.01 16.46c2.72 0 4.92.75 6.61 2.26 1.69 1.5 2.54 3.7 2.54 6.59v14.42h-5.61v-2.79c-1.69 2.15-3.95 3.23-6.78 3.23-2.02 0-3.69-.6-5.01-1.79-1.32-1.19-1.97-2.78-1.97-4.75 0-4.28 2.76-6.72 8.27-7.34l3.49-.35c1.33-.09 2-.69 2-1.81 0-.83-.33-1.49-.98-1.99-.65-.5-1.49-.75-2.52-.75-1.11 0-2.02.3-2.72.91-.71.6-1.16 1.45-1.35 2.54l-5.57-1.33c.3-2.03 1.32-3.72 3.03-5.04 1.72-1.35 3.91-2.01 6.57-2.01zm-1.87 18.97c1.47 0 2.74-.53 3.8-1.59 1.07-1.06 1.6-2.28 1.6-3.67v-.49c-.28.24-.91.43-1.91.57l-3.62.44c-.8.12-1.44.39-1.91.82-.47.43-.71.97-.71 1.61 0 .68.25 1.23.75 1.66.5.44 1.17.65 2 .65zM241.77 19.6V6.99h5.61v32.73h-5.61v-2.7c-1.8 2.09-4.07 3.14-6.82 3.14-2.94 0-5.39-1.13-7.36-3.41-1.97-2.27-2.95-5.09-2.95-8.45s.98-6.18 2.95-8.45c1.97-2.27 4.42-3.41 7.36-3.41 2.75.02 5.02 1.06 6.82 3.16zm-9.68 13.29c1.08 1.22 2.43 1.84 4.03 1.84 1.61 0 2.95-.61 4.03-1.84 1.08-1.22 1.62-2.75 1.62-4.58s-.54-3.35-1.62-4.56c-1.08-1.21-2.43-1.81-4.03-1.81-1.61 0-2.95.61-4.03 1.84-1.08 1.22-1.62 2.74-1.62 4.53 0 1.83.54 3.36 1.62 4.58zM261.9 16.46c2.72 0 4.92.75 6.61 2.26 1.69 1.5 2.54 3.7 2.54 6.59v14.42h-5.61v-2.79c-1.69 2.15-3.95 3.23-6.78 3.23-2.02 0-3.69-.6-5.01-1.79-1.32-1.19-1.97-2.78-1.97-4.75 0-4.28 2.76-6.72 8.27-7.34l3.49-.35c1.33-.09 2-.69 2-1.81 0-.83-.33-1.49-.98-1.99-.65-.5-1.49-.75-2.52-.75-1.11 0-2.02.3-2.72.91-.71.6-1.16 1.45-1.35 2.54l-5.57-1.33c.3-2.03 1.32-3.72 3.03-5.04 1.72-1.35 3.91-2.01 6.57-2.01zm-1.87 18.97c1.47 0 2.74-.53 3.8-1.59 1.07-1.06 1.6-2.28 1.6-3.67v-.49c-.28.24-.91.43-1.91.57l-3.62.44c-.8.12-1.44.39-1.91.82-.47.43-.71.97-.71 1.61 0 .68.25 1.23.75 1.66.5.44 1.16.65 2 .65zM281.98 16.9v2.96c.94-1.39 2.13-2.37 3.58-2.94 1.44-.57 2.92-.61 4.45-.11v5.66c-2.25-.83-4.14-.79-5.7.11-1.55.9-2.33 2.35-2.33 4.36v12.78h-5.61V16.9h5.61zM51.42 21.28L41.33 3.48A6.018 6.018 0 0036.1.43h-20a6.01 6.01 0 00-5.23 3.05L.78 21.28a6.025 6.025 0 000 5.93L10.87 45a6.018 6.018 0 005.23 3.05h20A6.01 6.01 0 0041.33 45l10.09-17.8a6.006 6.006 0 000-5.92zM26.1 40.45v-3.59c6.96 0 12.62-5.66 12.62-12.62S33.06 11.62 26.1 11.62s-12.62 5.66-12.62 12.62c0 2.78.91 5.36 2.45 7.45l2.07-2a9.722 9.722 0 01-1.67-5.45c0-5.39 4.38-9.77 9.77-9.77s9.77 4.38 9.77 9.77-4.38 9.77-9.77 9.77v-3.59c3.41 0 6.18-2.77 6.18-6.18s-2.77-6.18-6.18-6.18-6.18 2.77-6.18 6.18c0 1.05.26 2.04.73 2.9l2.1-2.02c-.07-.28-.12-.57-.12-.88 0-1.92 1.55-3.47 3.47-3.47s3.47 1.55 3.47 3.47-1.55 3.47-3.47 3.47c-.36 0-.71-.05-1.03-.16l-8.26 7.96c-.33.32-.76.48-1.18.48a1.68 1.68 0 01-1.43-.79 16.148 16.148 0 01-4.29-10.97c0-8.94 7.27-16.2 16.2-16.2s16.2 7.27 16.2 16.2-7.27 16.22-16.21 16.22z"></path></g></svg>