<svg baseProfile="basic" xmlns="http://www.w3.org/2000/svg" viewBox="0 0 1600 1280" class=""><g fill="#141414" stroke="#000" stroke-width="3" stroke-linejoin="round" stroke-miterlimit="10"><path d="M1717.48 1280V11.03c-1.18-.12-2.37-.18-3.58-.18h0c-19.41 0-35.29 15.88-35.29 35.29v32.84c-7.99 8.62-12.94 20.1-12.94 32.71v28.95a70.636 70.636 0 00-10.95 13.35c-1.43-3.31-3.44-6.32-5.86-8.93v-21.44c0-12.67-10.37-23.03-23.03-23.03h0c-12.67 0-23.03 10.37-23.03 23.03v21.44c-5.22 5.62-8.45 13.12-8.45 21.35v18.89a46.005 46.005 0 00-11.8 18.39c-5.74-8.89-15.72-14.82-27.03-14.82h0c-17.7 0-32.17 14.48-32.17 32.17v6.48c-3.84-2.88-8.59-4.61-13.73-4.61-12.67 0-23.03 10.36-23.03 23.03v21.44c-5.22 5.62-8.45 13.12-8.45 21.35v18.89c-3.94 3.75-7.2 8.2-9.61 13.14-.23-.26-.47-.52-.71-.78v-21.44c0-12.67-10.37-23.03-23.03-23.03-12.67 0-23.03 10.37-23.03 23.03v21.44c-2.44 2.63-4.45 5.64-5.89 8.97-2.08-8.75-6.68-16.54-13-22.56V287.5c0-8.23-3.23-15.73-8.45-21.35v-21.44c0-12.67-10.37-23.03-23.03-23.03-12.67 0-23.03 10.37-23.03 23.03v21.44c-3.62 3.9-6.26 8.7-7.54 14.03-2.98-1.41-6.29-2.23-9.79-2.23-12.67 0-23.03 10.36-23.03 23.03v21.44c-5.22 5.62-8.45 13.12-8.45 21.35v18.89c-.9.86-1.75 1.75-2.58 2.68-1.21-5.63-3.95-10.7-7.74-14.79v-21.44c0-12.67-10.37-23.03-23.03-23.03h0c-12.67 0-23.03 10.37-23.03 23.03v21.44a31.98 31.98 0 00-4.09 5.49v-61.62c0-17.7-14.48-32.17-32.17-32.17h0c-17.7 0-32.17 14.48-32.17 32.17v9.44c-16.96.2-30.85 13.69-31.72 30.49-5.85-5.98-13.99-9.71-22.96-9.71-4.66 0-9.08 1.03-13.09 2.83V282.2c0-17.7-14.48-32.17-32.17-32.17h0c-17.7 0-32.17 14.48-32.17 32.17v9.17c-4.32-2.17-9.17-3.42-14.31-3.42-14.79 0-27.3 10.13-31.02 23.78-1.85-.33-3.74-.54-5.68-.54-4.32 0-8.43.87-12.2 2.43-3.27-8.56-10.1-15.38-18.66-18.65v-15.22c0-17.7-14.48-32.17-32.17-32.17h0c-17.7 0-32.17 14.48-32.17 32.17v.46c-3.46.79-6.71 2.15-9.65 3.97a31.768 31.768 0 00-12-2.36c-17.7 0-32.17 14.48-32.17 32.17v17.98c-5.2-10.82-16.24-18.35-28.99-18.35-2.39 0-4.72.29-6.97.79v-2.87c0-17.7-14.48-32.17-32.17-32.17h0c-17.7 0-32.17 14.48-32.17 32.17v4.52c-3.75-7.79-10.52-13.86-18.79-16.65-4.82-11.72-16.36-20.04-29.77-20.04h0c-17.7 0-32.17 14.48-32.17 32.17v32.41c-4.32-2.17-9.17-3.42-14.31-3.42-3.3 0-6.49.51-9.49 1.44-.73-17.06-14.87-30.8-32.1-30.8h0c-1.94 0-3.83.2-5.68.54-3.72-13.65-16.23-23.78-31.02-23.78h0c-5.14 0-9.99 1.25-14.31 3.42v-9.17c0-17.7-14.48-32.17-32.17-32.17-17.7 0-32.17 14.48-32.17 32.17v45.27c-4.01-1.8-8.43-2.83-13.09-2.83h0c-8.97 0-17.11 3.73-22.96 9.71-.87-16.8-14.76-30.29-31.72-30.49v-9.44c0-17.7-14.48-32.17-32.17-32.17-17.7 0-32.17 14.48-32.17 32.17v61.62a31.847 31.847 0 00-4.09-5.49v-21.44c0-12.67-10.36-23.03-23.03-23.03-12.67 0-23.03 10.37-23.03 23.03v21.44c-3.79 4.09-6.53 9.15-7.74 14.79-.83-.93-1.68-1.82-2.58-2.68v-18.89c0-8.23-3.23-15.73-8.45-21.35v-21.44c0-12.67-10.37-23.03-23.03-23.03-3.5 0-6.81.81-9.79 2.23-1.28-5.33-3.93-10.13-7.54-14.03v-21.44c0-12.67-10.37-23.03-23.03-23.03-12.67 0-23.03 10.37-23.03 23.03v21.44c-5.22 5.62-8.45 13.12-8.45 21.35v18.89c-6.32 6.02-10.92 13.81-13 22.56a31.548 31.548 0 00-5.89-8.97v-21.44c0-12.67-10.37-23.03-23.03-23.03-12.67 0-23.03 10.37-23.03 23.03v21.44c-.24.26-.48.51-.71.78a46.096 46.096 0 00-9.61-13.14v-18.89c0-8.23-3.23-15.73-8.45-21.35v-21.44c0-12.67-10.37-23.03-23.03-23.03-5.14 0-9.89 1.73-13.73 4.61v-6.48c0-17.7-14.48-32.17-32.17-32.17-11.31 0-21.29 5.93-27.03 14.82-2.41-7.06-6.5-13.34-11.8-18.39V166.4c0-8.23-3.23-15.73-8.45-21.35v-21.44c0-12.67-10.36-23.03-23.03-23.03-12.67 0-23.03 10.37-23.03 23.03v21.44c-2.42 2.61-4.43 5.62-5.86 8.93-3.1-4.89-6.78-9.37-10.95-13.35v-28.95c0-12.61-4.94-24.09-12.94-32.71V46.13c0-19.41-15.88-35.29-35.29-35.29-.25 0-.49.03-.73.04V1280h1834.82z"></path><path d="M-17.07 274.16v-55.05c0-10.09 8.26-18.35 18.35-18.35h3.67c10.09 0 18.35 8.26 18.35 18.35v55.05M342.58 406.28v-39.91c0-7.32 5.99-13.3 13.3-13.3h2.66c7.32 0 13.3 5.99 13.3 13.3v39.91M12.29 372.33v-72.5c0-15.13 12.38-27.5 27.5-27.5h0c15.13 0 27.5 12.38 27.5 27.5v34.89M110.46 363.15v-25.78c0-10.55 8.63-19.18 19.18-19.18h0c10.55 0 19.18 8.63 19.18 19.18v25.78"></path><path d="M77.43 402.61v-25.78c0-10.55 8.63-19.18 19.18-19.18h0c10.55 0 19.18 8.63 19.18 19.18v25.78M224.67 329.21v-23.46c0-9.3 7.61-16.9 16.9-16.9h0c9.3 0 16.9 7.61 16.9 16.9v23.46M490.73 365.91v-23.46c0-9.3 7.61-16.9 16.9-16.9h0c9.3 0 16.9 7.61 16.9 16.9v23.46M576.06 353.06V329.6c0-9.3 7.61-16.9 16.9-16.9h0c9.3 0 16.9 7.61 16.9 16.9v23.46M365.04 442.98v-23.46c0-9.3 7.61-16.9 16.9-16.9h0c9.3 0 16.9 7.61 16.9 16.9v23.46"></path><path d="M396.23 410.86V387.4c0-9.3 7.61-16.9 16.9-16.9h0c9.3 0 16.9 7.61 16.9 16.9v23.46"></path><g><path d="M1617.39 274.16v-55.05c0-10.09-8.26-18.35-18.35-18.35h-3.67c-10.09 0-18.35 8.26-18.35 18.35v55.05M1257.74 406.28v-39.91c0-7.32-5.99-13.3-13.3-13.3h-2.66c-7.32 0-13.3 5.99-13.3 13.3v39.91M1588.03 372.33v-72.5c0-15.13-12.38-27.5-27.5-27.5h0c-15.13 0-27.5 12.38-27.5 27.5v34.89M1489.86 363.15v-25.78c0-10.55-8.63-19.18-19.17-19.18h0c-10.55 0-19.18 8.63-19.18 19.18v25.78"></path><path d="M1522.89 402.61v-25.78c0-10.55-8.63-19.18-19.17-19.18h0c-10.55 0-19.18 8.63-19.18 19.18v25.78M1375.66 329.21v-23.46c0-9.3-7.61-16.9-16.9-16.9h0c-9.3 0-16.9 7.61-16.9 16.9v23.46M1109.59 365.91v-23.46c0-9.3-7.61-16.9-16.9-16.9h0c-9.3 0-16.9 7.61-16.9 16.9v23.46M1024.27 353.06V329.6c0-9.3-7.61-16.9-16.9-16.9h0c-9.3 0-16.9 7.61-16.9 16.9v23.46M1235.29 442.98v-23.46c0-9.3-7.61-16.9-16.9-16.9h0c-9.3 0-16.9 7.61-16.9 16.9v23.46"></path><path d="M1204.09 410.86V387.4c0-9.3-7.61-16.9-16.9-16.9h0c-9.3 0-16.9 7.61-16.9 16.9v23.46"></path></g></g></svg>