<svg xmlns="http://www.w3.org/2000/svg" viewBox="0 0 0 100" class="mi-nav-logo"><g data-name="Group 578"><g data-name="Group 551"><g data-name="Group 549" fill="#fff"><path data-name="Path 5334" d="M126.47 35.894a1.169 1.169 0 01.308-.682.969.969 0 01.748-.286h7.608a1.025 1.025 0 011.056.836l5.981 19.967 6.025-19.967a1.127 1.127 0 011.121-.836h7.521a1.065 1.065 0 01.715.276 1.022 1.022 0 01.362.692q.769 7.74 1.573 15.359t1.571 15.36v.11q0 .858-.967.858h-6.223a.921.921 0 01-1.056-.968l-1.912-17-4.948 17.107a1.251 1.251 0 01-.319.528.757.757 0 01-.539.308h-5.78a.833.833 0 01-.56-.3.94.94 0 01-.319-.539l-4.948-17.064-1.913 16.954q-.045.969-1.077.968h-6.224a.845.845 0 01-.945-.968z"></path><path data-name="Path 5335" d="M165.963 41.37a1.9 1.9 0 01.4-1.21 1.466 1.466 0 011.231-.505h5.036a1.577 1.577 0 01.571.12 1.944 1.944 0 01.572.352 2.3 2.3 0 01.451.538 1.34 1.34 0 01.187.7v24.518a1.64 1.64 0 01-.462 1.264 1.868 1.868 0 01-1.319.429h-5.036q-1.627 0-1.627-1.693z"></path><path data-name="Path 5336" d="M180.256 40.047a1.368 1.368 0 01.6-.307 2.977 2.977 0 01.6-.067h3.321a1.507 1.507 0 01.681.144 1.469 1.469 0 01.484.384 2.041 2.041 0 01.319.549q.12.306.231.635l.461 1.93a5.249 5.249 0 011.067-1.4 8.157 8.157 0 011.825-1.315 11.507 11.507 0 012.518-.976 12.288 12.288 0 013.189-.383 9.8 9.8 0 017.817 3.6 11.666 11.666 0 012.089 3.895 15.494 15.494 0 01.714 4.757v14.4a1.912 1.912 0 01-.363 1.264 1.43 1.43 0 01-1.154.429h-5.08a1.971 1.971 0 01-1.3-.319 1.661 1.661 0 01-.352-1.243v-14.32a3.915 3.915 0 00-.429-1.792 5.233 5.233 0 00-1.132-1.495 5.436 5.436 0 00-1.594-1.022 4.655 4.655 0 00-1.814-.374 4.1 4.1 0 00-1.617.352 5.421 5.421 0 00-1.517.978 5.743 5.743 0 00-1.165 1.474 4.291 4.291 0 00-.539 1.835v14.294a2.084 2.084 0 01-.143.747 1.185 1.185 0 01-.429.572 1.981 1.981 0 01-.539.242 2.308 2.308 0 01-.582.066h-4.97a1.548 1.548 0 01-1.781-1.693V41.297a1.606 1.606 0 01.187-.767 1.378 1.378 0 01.517-.548z"></path><path data-name="Path 5337" d="M234.855 64.239a14.659 14.659 0 01-4.354 2.781 13.27 13.27 0 01-5.124 1 14.951 14.951 0 01-10.4-4.145 14.591 14.591 0 01-3.21-4.585 13.827 13.827 0 01-1.187-5.739 14.84 14.84 0 011.814-7.146 14.4 14.4 0 012.111-2.914 13.392 13.392 0 012.781-2.276 13.727 13.727 0 013.343-1.473 13.5 13.5 0 013.8-.528 13 13 0 013.54.484 13.821 13.821 0 013.222 1.363 14.064 14.064 0 012.759 2.111 14.272 14.272 0 012.155 2.694 13.044 13.044 0 011.4 3.122 11.909 11.909 0 01.494 3.42q0 1.143-.033 1.869a2.124 2.124 0 01-.34 1.155 1.665 1.665 0 01-1.023.593 10 10 0 01-2.1.165h-15.832a5.455 5.455 0 00.89 2.353 5.6 5.6 0 001.55 1.507 6.218 6.218 0 001.869.8 7.853 7.853 0 001.87.242 8.391 8.391 0 001.627-.165 11.531 11.531 0 001.616-.44 9.164 9.164 0 001.43-.638 4.766 4.766 0 001.044-.758 4.544 4.544 0 01.6-.429 1.078 1.078 0 01.539-.142 1.046 1.046 0 01.582.2 4.634 4.634 0 01.671.571l2.331 2.639a1.451 1.451 0 01.307.518 1.669 1.669 0 01.066.472 1.219 1.219 0 01-.241.759 2.809 2.809 0 01-.567.56zm-10.577-18.318a4.208 4.208 0 00-1.66.341 6.307 6.307 0 00-1.507.912 7.888 7.888 0 00-1.264 1.3 8 8 0 00-.913 1.473h11.237a12.969 12.969 0 00-1-1.583 6.774 6.774 0 00-1.231-1.275 5.325 5.325 0 00-1.583-.858 6.367 6.367 0 00-2.079-.31z"></path><path data-name="Path 5338" d="M242.595 41.281a1.6 1.6 0 01.154-.725 1.454 1.454 0 01.407-.506 1.767 1.767 0 01.571-.3 2.106 2.106 0 01.627-.1h3.32a1.189 1.189 0 01.88.329 2.829 2.829 0 01.561.836 8.053 8.053 0 01.407 1.121 10.29 10.29 0 00.417 1.188q.66-.726 1.309-1.43a9.74 9.74 0 011.4-1.253 6.931 6.931 0 011.638-.891 5.67 5.67 0 012.034-.341 11.466 11.466 0 012.122.177 9.151 9.151 0 011.77.516 10.241 10.241 0 011.66.869q.825.528 1.793 1.231a1.556 1.556 0 01.945 1.3 2.3 2.3 0 01-.374 1.122l-2 3.408a1.747 1.747 0 01-1.473.858 2.5 2.5 0 01-.989-.242 6.946 6.946 0 00-1.924-1.374 5.275 5.275 0 00-2.233-.451 4.275 4.275 0 00-1.5.242 4.006 4.006 0 00-1.177.681 6.236 6.236 0 00-.99 1.056q-.462.616-.923 1.363v15.921a1.772 1.772 0 01-.407 1.264 1.8 1.8 0 01-1.352.429h-4.948a1.506 1.506 0 01-1.715-1.693z"></path><path data-name="Path 5339" d="M266.035 41.831a1.818 1.818 0 01-.165-1.539q.274-.637 1.308-.637h5.629a1.671 1.671 0 011 .307 1.639 1.639 0 01.6.88q.374 1.166.824 2.616t.946 2.98q.5 1.529.979 3.034t.89 2.771q.406 1.265.726 2.2t.472 1.331l4.662-14.931a2.032 2.032 0 01.649-.946 1.836 1.836 0 011.022-.241h5.783a2.368 2.368 0 01.968.153.825.825 0 01.44.418 1.039 1.039 0 01.044.605 3.774 3.774 0 01-.22.714l-10.467 25.091a2.711 2.711 0 01-.572.67 1.51 1.51 0 01-.989.275h-2.617a2.268 2.268 0 01-1.242-.253 1.5 1.5 0 01-.539-.692z"></path><path data-name="Path 5340" d="M318.083 64.239a14.642 14.642 0 01-4.353 2.781 13.274 13.274 0 01-5.124 1 14.951 14.951 0 01-10.4-4.145 14.576 14.576 0 01-3.21-4.585 13.812 13.812 0 01-1.188-5.739 14.87 14.87 0 011.814-7.146 14.432 14.432 0 012.111-2.914 13.4 13.4 0 012.782-2.276 13.72 13.72 0 013.342-1.473 13.505 13.505 0 013.8-.528 13 13 0 013.54.484 13.819 13.819 0 013.221 1.363 14.07 14.07 0 012.76 2.111 14.311 14.311 0 012.155 2.694 13.041 13.041 0 011.4 3.122 11.918 11.918 0 01.495 3.42q0 1.143-.033 1.869a2.115 2.115 0 01-.341 1.155 1.659 1.659 0 01-1.022.593 10.011 10.011 0 01-2.1.165h-15.833a5.468 5.468 0 00.891 2.353 5.6 5.6 0 001.55 1.507 6.207 6.207 0 001.869.8 7.851 7.851 0 001.869.242 8.383 8.383 0 001.627-.165 11.581 11.581 0 001.617-.44 9.139 9.139 0 001.429-.638 4.77 4.77 0 001.045-.758 4.608 4.608 0 01.6-.429 1.08 1.08 0 01.539-.142 1.049 1.049 0 01.583.2 4.634 4.634 0 01.671.571l2.33 2.639a1.471 1.471 0 01.308.518 1.7 1.7 0 01.066.472 1.22 1.22 0 01-.242.759 2.76 2.76 0 01-.568.56zm-10.576-18.318a4.213 4.213 0 00-1.661.341 6.321 6.321 0 00-1.506.912 7.888 7.888 0 00-1.264 1.3 8 8 0 00-.913 1.473H313.4a13.089 13.089 0 00-1-1.583 6.768 6.768 0 00-1.231-1.275 5.335 5.335 0 00-1.583-.858 6.373 6.373 0 00-2.079-.31z"></path><path data-name="Path 5341" d="M325.824 41.281a1.61 1.61 0 01.153-.725 1.465 1.465 0 01.407-.506 1.772 1.772 0 01.572-.3 2.1 2.1 0 01.627-.1h3.32a1.191 1.191 0 01.88.329 2.809 2.809 0 01.56.836 7.93 7.93 0 01.407 1.121 10.157 10.157 0 00.418 1.188q.66-.726 1.308-1.43a9.747 9.747 0 011.4-1.253 6.931 6.931 0 011.638-.891 5.666 5.666 0 012.034-.341 11.473 11.473 0 012.122.177 9.151 9.151 0 011.77.516 10.281 10.281 0 011.66.869q.825.528 1.793 1.231a1.556 1.556 0 01.945 1.3 2.3 2.3 0 01-.374 1.122l-2 3.408a1.749 1.749 0 01-1.473.858 2.5 2.5 0 01-.99-.242 6.932 6.932 0 00-1.924-1.374 5.268 5.268 0 00-2.232-.451 4.281 4.281 0 00-1.506.242 4.018 4.018 0 00-1.177.681 6.271 6.271 0 00-.989 1.056q-.462.616-.923 1.363v15.921a1.768 1.768 0 01-.408 1.264 1.8 1.8 0 01-1.352.429h-4.947a1.506 1.506 0 01-1.715-1.693z"></path><path data-name="Path 5342" d="M354.146 58.895a6.412 6.412 0 001.286 1 9.685 9.685 0 001.33.66 7.685 7.685 0 001.122.363 3.673 3.673 0 00.659.11c.279 0 .634-.011 1.067-.033a5.723 5.723 0 001.243-.2 2.59 2.59 0 001.022-.538 1.326 1.326 0 00.429-1.056 1.746 1.746 0 00-.242-.979 1.954 1.954 0 00-.7-.616 5.821 5.821 0 00-1.132-.451q-.672-.2-1.506-.461a18.141 18.141 0 01-4.355-1.693 9.794 9.794 0 01-2.715-2.21 7.2 7.2 0 01-1.4-2.628 10.938 10.938 0 01-.4-2.969 7.516 7.516 0 01.725-3.32 7.334 7.334 0 012.067-2.561 9.784 9.784 0 013.211-1.65 13.938 13.938 0 014.156-.583 13.736 13.736 0 012.594.232 10.362 10.362 0 012.309.725 11.369 11.369 0 012.144 1.276 17.016 17.016 0 012.078 1.857 1.376 1.376 0 01.385.825 1.139 1.139 0 01-.494.825q-.858.7-1.639 1.385t-1.616 1.517a1.214 1.214 0 01-.528.275 1.065 1.065 0 01-.506-.011 1.485 1.485 0 01-.461-.219 1.883 1.883 0 01-.4-.374 3.825 3.825 0 00-1.759-1.155 6.448 6.448 0 00-1.847-.3 3.387 3.387 0 00-1.716.374 1.15 1.15 0 00-.593 1.143 1.219 1.219 0 00.429.891 3.045 3.045 0 00.945.517 8.173 8.173 0 001.188.319q.625.12 1.154.274a34.264 34.264 0 013.628 1.386 11.058 11.058 0 012.859 1.836 7.6 7.6 0 011.88 2.605 9.121 9.121 0 01.671 3.7 8.5 8.5 0 01-.869 3.892 8.326 8.326 0 01-2.386 2.881 10.9 10.9 0 01-3.6 1.78 15.664 15.664 0 01-4.475.616 16.272 16.272 0 01-2.771-.242 12.955 12.955 0 01-2.726-.78 12.326 12.326 0 01-2.507-1.386 9.831 9.831 0 01-2.111-2.056 2.282 2.282 0 01-.363-.648 1.816 1.816 0 01-.11-.671 1.622 1.622 0 01.132-.6 1.185 1.185 0 01.385-.474l2.837-2.836a1 1 0 01.934-.308 3.135 3.135 0 011.058.744z"></path><path data-name="Path 5343" d="M398.828 64.239a14.65 14.65 0 01-4.354 2.781 13.271 13.271 0 01-5.123 1 14.951 14.951 0 01-10.4-4.145 14.591 14.591 0 01-3.21-4.585 13.827 13.827 0 01-1.187-5.739 14.848 14.848 0 011.814-7.146 14.4 14.4 0 012.111-2.914 13.4 13.4 0 012.781-2.276 13.752 13.752 0 013.343-1.473 13.5 13.5 0 013.8-.528 13 13 0 013.54.484 13.8 13.8 0 013.222 1.363 14.028 14.028 0 012.759 2.111 14.262 14.262 0 012.155 2.694 13.025 13.025 0 011.4 3.122 11.909 11.909 0 01.494 3.42q0 1.143-.033 1.869a2.109 2.109 0 01-.34 1.155 1.666 1.666 0 01-1.023.593 10 10 0 01-2.1.165h-15.832a5.455 5.455 0 00.89 2.353 5.6 5.6 0 001.55 1.507 6.216 6.216 0 001.87.8 7.835 7.835 0 001.869.242 8.388 8.388 0 001.627-.165 11.541 11.541 0 001.616-.44 9.12 9.12 0 001.43-.638 4.76 4.76 0 001.044-.758 4.56 4.56 0 01.6-.429 1.078 1.078 0 01.539-.142 1.047 1.047 0 01.582.2 4.634 4.634 0 01.671.571l2.331 2.639a1.453 1.453 0 01.307.518 1.669 1.669 0 01.066.472 1.221 1.221 0 01-.241.759 2.821 2.821 0 01-.568.56zm-10.577-18.318a4.209 4.209 0 00-1.66.341 6.312 6.312 0 00-1.507.912 8.153 8.153 0 00-2.176 2.771h11.236a13.024 13.024 0 00-1-1.583 6.8 6.8 0 00-1.232-1.275 5.322 5.322 0 00-1.583-.858 6.367 6.367 0 00-2.078-.308z"></path></g><g data-name="Group 550"><path data-name="Path 5344" d="M168.066 36.003h4.238a.321.321 0 00.28-.162l2.119-3.67a.322.322 0 000-.323l-2.119-3.671a.322.322 0 00-.28-.161h-4.238a.321.321 0 00-.28.161l-2.119 3.671a.322.322 0 000 .323l2.119 3.67a.32.32 0 00.28.162z" fill="#e4d903"></path><path data-name="Path 5345" d="M172.163 37.757h-3.956a2.328 2.328 0 01-2.01-1.159l-1.979-3.428a2.329 2.329 0 010-2.322l1.977-3.425a2.329 2.329 0 012.011-1.161h3.956a2.328 2.328 0 012.01 1.16l1.978 3.427a2.325 2.325 0 010 2.322l-1.978 3.426a2.327 2.327 0 01-2.009 1.16zm-3.272-3.507h2.588l1.293-2.24-1.294-2.241h-2.586l-1.294 2.243z" fill="#fff"></path></g><path data-name="Path 5346" d="M168.066 36.003h4.238a.321.321 0 00.28-.162l2.119-3.67a.322.322 0 000-.323l-2.119-3.671a.322.322 0 00-.28-.161h-4.238a.321.321 0 00-.28.161l-2.119 3.671a.322.322 0 000 .323l2.119 3.67a.32.32 0 00.28.162z" fill="#e4d903"></path></g><g data-name="Group 577"><g data-name="Group 576"><g data-name="Group 575"><g data-name="Group 552"><path data-name="Path 5347" d="M91.86 44.199h-.972V33.712a7.535 7.535 0 00-6.715-7.481 39.649 39.649 0 00-23.04-19.248v-.008l-.693-.2c-.222-.065-.445-.122-.668-.183q-.732-.2-1.477-.376c-.231-.054-.462-.111-.694-.161-.2-.043-.4-.087-.6-.128v-1.62a2.592 2.592 0 00-2.588-2.589H44.14a2.592 2.592 0 00-2.588 2.589v1.62c-.2.04-.4.085-.6.128-.233.05-.464.107-.7.161q-.744.174-1.476.376c-.223.061-.446.118-.668.183l-.693.2v.008a39.649 39.649 0 00-23.04 19.248 7.535 7.535 0 00-6.715 7.481v10.492h-.971a4.988 4.988 0 00-4.983 4.983v1.43A2.977 2.977 0 004.68 53.59h2.908c.37 1.713 1.52 2.931 2.919 2.931h1.855a7.549 7.549 0 00-2.05 4.591 7.948 7.948 0 003.1 6.506c-1.351 1.409-3.884 4.625-2.854 8.069a8.567 8.567 0 002.174 3.37 15.6 15.6 0 005.7 3.8 6.431 6.431 0 00.221 5.952c1.86 2.831 6.977 4.435 12.251 2.363a8.891 8.891 0 004.9 5.4c4.423 1.809 10.145-.046 13.463-4.233a12.882 12.882 0 009.828 4.925 9.573 9.573 0 003.635-.692 8.892 8.892 0 004.9-5.4c5.275 2.072 10.392.469 12.252-2.363a6.431 6.431 0 00.221-5.952 15.594 15.594 0 005.706-3.8 8.569 8.569 0 002.172-3.368c1.03-3.443-1.5-6.659-2.855-8.068a7.945 7.945 0 003.1-6.506 7.554 7.554 0 00-2.049-4.591h1.854c1.4 0 2.549-1.218 2.919-2.931h2.908a2.977 2.977 0 002.974-2.973v-1.43a4.988 4.988 0 00-4.972-4.991z"></path><path data-name="Path 5348" d="M39.469 98.976a11.358 11.358 0 01-4.3-.823 10.2 10.2 0 01-5.2-4.87c-5.722 1.6-10.731-.49-12.737-3.542a7.478 7.478 0 01-.886-5.953 16.9 16.9 0 01-4.862-3.572 10.168 10.168 0 01-2.559-4.044c-1.011-3.38.57-6.434 2.142-8.454a9.067 9.067 0 01-2.456-6.725 8.752 8.752 0 01.722-2.94 4.877 4.877 0 01-2.969-2.758h-1.68a4.689 4.689 0 01-4.683-4.684v-1.429a6.7 6.7 0 015.953-6.652v-8.818a9.219 9.219 0 017.324-9.036A41.634 41.634 0 0135.71 5.75v-.046l1.919-.573c.156-.045.315-.088.473-.131l.223-.06q.753-.209 1.517-.387v-.25a4.3 4.3 0 014.3-4.3h10.273a4.3 4.3 0 014.3 4.3v.25q.766.18 1.517.387l.224.061c.158.042.316.085.473.131l1.919.565v.053A41.637 41.637 0 0185.28 24.676a9.218 9.218 0 017.323 9.036v8.823a6.7 6.7 0 015.954 6.652v1.425a4.689 4.689 0 01-4.684 4.684h-1.68a4.877 4.877 0 01-2.968 2.758 8.775 8.775 0 01.722 2.94 9.067 9.067 0 01-2.457 6.725c1.572 2.021 3.154 5.074 2.143 8.453a10.152 10.152 0 01-2.557 4.042 16.9 16.9 0 01-4.864 3.575 7.479 7.479 0 01-.887 5.953c-2 3.051-7.011 5.145-12.736 3.542a10.2 10.2 0 01-5.2 4.869 11.256 11.256 0 01-4.283.82 14.522 14.522 0 01-9.825-4.1 14.368 14.368 0 01-9.812 4.103zm9.807-9.391l1.34 1.691a11.167 11.167 0 008.488 4.277 7.848 7.848 0 002.988-.565 7.222 7.222 0 003.935-4.388l.587-1.675 1.651.649c4.457 1.75 8.763.475 10.2-1.71a4.791 4.791 0 00.07-4.364l-.658-1.6 1.61-.637a13.949 13.949 0 005.083-3.376 7.045 7.045 0 001.786-2.694c.79-2.641-1.451-5.352-2.451-6.395l-1.27-1.325 1.412-1.173a6.25 6.25 0 002.486-5.078 5.819 5.819 0 00-1.6-3.548l-2.632-2.866h5.745c.525 0 1.05-.665 1.248-1.582l.292-1.348h4.287a1.266 1.266 0 001.265-1.265v-1.431a3.276 3.276 0 00-3.273-3.273h-2.681V33.712a5.8 5.8 0 00-5.189-5.782l-.9-.1-.425-.8A38.146 38.146 0 0060.615 8.612l-.661-.2a19.055 19.055 0 00-.392-.108l-.248-.067q-.7-.193-1.413-.36l-.2-.046a26.306 26.306 0 00-.468-.108l-.145-.032-.429-.09-1.375-.274V4.304a.88.88 0 00-.879-.879H44.132a.88.88 0 00-.879.879v3.023l-1.375.274c-.144.029-.287.06-.429.091l-.145.031c-.166.036-.331.075-.5.114l-.169.04q-.711.166-1.412.36l-.247.066c-.131.035-.261.07-.391.109l-.663.2A38.146 38.146 0 0015.878 27.03l-.424.8-.9.1a5.8 5.8 0 00-5.189 5.782v12.2h-2.68a3.276 3.276 0 00-3.273 3.273v1.427a1.266 1.266 0 001.264 1.265h4.287l.292 1.348c.2.917.723 1.582 1.248 1.582h5.746l-2.632 2.866a5.821 5.821 0 00-1.6 3.548 6.25 6.25 0 002.487 5.078l1.411 1.174-1.27 1.324c-1 1.043-3.24 3.754-2.45 6.4a7.064 7.064 0 001.787 2.7 13.954 13.954 0 005.082 3.374l1.61.637-.658 1.6a4.79 4.79 0 00.069 4.364c1.436 2.184 5.743 3.459 10.2 1.71l1.652-.649.587 1.675a7.222 7.222 0 003.935 4.389c3.674 1.5 8.608-.1 11.476-3.713z" fill="#fff"></path></g><g data-name="Group 574"><g data-name="Group 573"><g data-name="Group 572"><g data-name="Group 553"><path data-name="Path 5349" d="M83.996 67.539c.278-.179 3.757-2.513 3.5-6.383a7.675 7.675 0 00-5.343-6.435 5.557 5.557 0 00.6-7.444 7.8 7.8 0 00-8.125-2.538c1.7-1.984 2.145-4.374 1.091-6.237a6.284 6.284 0 00-3.567-2.64 12.188 12.188 0 00-8.83.587 8.023 8.023 0 00-6.166-5.219 16.535 16.535 0 01-15.751 0 8.019 8.019 0 00-6.165 5.219 12.189 12.189 0 00-8.83-.587 6.281 6.281 0 00-3.567 2.64c-1.055 1.863-.606 4.253 1.09 6.237a7.8 7.8 0 00-8.124 2.538 5.554 5.554 0 00.6 7.444 7.673 7.673 0 00-5.343 6.435c-.258 3.87 3.221 6.2 3.5 6.383-.542.489-4.428 4.1-3.282 7.929a7.946 7.946 0 002.006 3.078 15.188 15.188 0 006.176 3.887c-.227.417-1.817 3.459-.174 5.961 1.845 2.808 7.171 4.04 12.1 1.761a8.451 8.451 0 004.71 5.727c4.066 1.665 10.036-.085 13.182-4.807 3.146 4.722 9.116 6.472 13.181 4.807a8.45 8.45 0 004.711-5.727c4.932 2.279 10.258 1.047 12.1-1.761 1.644-2.5.053-5.544-.173-5.961a15.192 15.192 0 006.175-3.887 7.933 7.933 0 002.007-3.078c1.14-3.832-2.747-7.44-3.289-7.929z" fill="#979797"></path><path data-name="Path 5350" d="M59.103 97.262a12.882 12.882 0 01-9.827-4.925c-3.318 4.187-9.04 6.042-13.463 4.233a8.891 8.891 0 01-4.9-5.4c-5.274 2.072-10.391.468-12.251-2.363a6.431 6.431 0 01-.221-5.952 15.6 15.6 0 01-5.7-3.8 8.567 8.567 0 01-2.174-3.37c-1.03-3.444 1.5-6.66 2.854-8.069a7.948 7.948 0 01-3.1-6.506 8.254 8.254 0 014.858-6.671 6.245 6.245 0 01.037-7.607 8.383 8.383 0 017.131-3.089 5.715 5.715 0 01-.15-5.6 6.907 6.907 0 013.986-2.981 12.978 12.978 0 018.642.3 8.87 8.87 0 016.433-4.95 19.082 19.082 0 0016.048 0 8.871 8.871 0 016.433 4.95 12.983 12.983 0 018.642-.3 6.909 6.909 0 013.986 2.981 5.716 5.716 0 01-.15 5.6 8.4 8.4 0 017.13 3.089 6.246 6.246 0 01.038 7.607 8.254 8.254 0 014.857 6.671 7.945 7.945 0 01-3.1 6.506c1.351 1.409 3.885 4.625 2.855 8.068a8.569 8.569 0 01-2.172 3.368 15.594 15.594 0 01-5.706 3.8 6.431 6.431 0 01-.221 5.952c-1.86 2.832-6.977 4.435-12.252 2.363a8.892 8.892 0 01-4.9 5.4 9.574 9.574 0 01-3.643.695zm-9.827-7.528l.618.929c3.092 4.64 8.783 5.966 12.282 4.531a7.628 7.628 0 004.27-5.216l.216-.875.818.377c4.674 2.161 9.549.972 11.169-1.494 1.364-2.078.068-4.694-.205-5.2l-.42-.772.831-.286a14.371 14.371 0 005.873-3.69 7.233 7.233 0 001.838-2.785c.986-3.3-2.382-6.546-3.068-7.164l-.72-.65.815-.526c.138-.089 3.392-2.235 3.16-5.71a6.973 6.973 0 00-4.857-5.786l-1.1-.4.829-.823a4.836 4.836 0 00.526-6.469 7.052 7.052 0 00-7.34-2.267l-2.307.613 1.551-1.814c1.506-1.763 1.893-3.827 1.009-5.388a5.46 5.46 0 00-3.149-2.3 11.376 11.376 0 00-8.277.548l-.773.374-.26-.818a7.258 7.258 0 00-5.6-4.715 8.667 8.667 0 00-7.242 1.83l-.485.418-.485-.418a8.663 8.663 0 00-7.242-1.83 7.261 7.261 0 00-5.606 4.715l-.26.818-.772-.374a11.38 11.38 0 00-8.278-.548 5.46 5.46 0 00-3.148 2.3c-.884 1.562-.5 3.626 1.008 5.389l1.551 1.814-2.307-.613a7.056 7.056 0 00-7.34 2.267 4.837 4.837 0 00.526 6.469l.83.823-1.1.4a6.974 6.974 0 00-4.857 5.786c-.231 3.475 3.022 5.621 3.161 5.71l.814.526-.72.65c-.685.618-4.053 3.869-3.068 7.165a7.233 7.233 0 001.836 2.781 14.369 14.369 0 005.875 3.693l.832.286-.42.772c-.274.5-1.57 3.12-.205 5.2 1.62 2.468 6.5 3.656 11.169 1.494l.818-.377.215.875a7.632 7.632 0 004.271 5.216c3.5 1.433 9.19.108 12.281-4.531z"></path></g><g data-name="Group 554" transform="translate(-2871.285 -348.988)"><circle data-name="Ellipse 1433" cx="12.652" cy="12.652" r="12.652" transform="translate(2923.088 400.075)" fill="#fff"></circle><circle data-name="Ellipse 1434" cx="5.418" cy="5.418" r="5.418" transform="translate(2930.322 407.309)"></circle></g><g data-name="Group 555" transform="translate(-2871.285 -348.988)"><circle data-name="Ellipse 1435" cx="12.652" cy="12.652" r="12.652" transform="translate(2892.854 400.075)" fill="#fff"></circle><circle data-name="Ellipse 1436" cx="5.418" cy="5.418" r="5.418" transform="translate(2900.089 407.309)"></circle></g><g data-name="Group 571"><g data-name="Group 570"><g data-name="Group 569"><g data-name="Group 568"><g data-name="Group 565"><g data-name="Group 556"><path data-name="Path 5351" d="M88.041 55.55H10.51c-1.148 0-2.08-1.416-2.08-3.162h81.691c0 1.746-.931 3.162-2.08 3.162z" fill="#f7f051"></path><path data-name="Path 5352" d="M88.041 56.512H10.51c-1.708 0-3.046-1.813-3.046-4.128v-.966h83.623v.966c0 2.319-1.338 4.128-3.046 4.128zM9.522 53.35c.213.771.656 1.229.988 1.229h77.531c.332 0 .775-.458.988-1.229z"></path></g><g data-name="Group 559"><g data-name="Group 557"><path data-name="Rectangle 72" d="M14.149 27.146h2.6v19.189h-8.12V32.666a5.52 5.52 0 015.52-5.52z" fill="#f7f051"></path><path data-name="Path 5353" d="M17.715 47.301H7.665V33.712a7.535 7.535 0 017.527-7.527h2.523zm-8.118-1.932h6.186V28.112h-.591a5.6 5.6 0 00-5.6 5.6z"></path></g><g data-name="Group 558"><path data-name="Rectangle 73" d="M89.922 46.335h-8.118V27.146h2.282a5.836 5.836 0 015.836 5.836v13.353z" fill="#f7f051"></path><path data-name="Path 5354" d="M90.888 47.301h-10.05V26.18h2.523a7.535 7.535 0 017.527 7.527zm-8.118-1.932h6.186V33.712a5.6 5.6 0 00-5.595-5.6h-.591z"></path></g></g><g data-name="Group 561"><g data-name="Group 560"><path data-name="Path 5355" d="M87.749 45.398c.005-.262.019-.522.019-.785a38.492 38.492 0 10-76.985 0c0 .263.014.523.019.785z" fill="#f7f051"></path><path data-name="Path 5356" d="M88.695 46.364H9.855l-.027-1.244c-.006-.169-.012-.337-.012-.507a39.46 39.46 0 0178.919 0c0 .174-.006.345-.012.516zm-76.946-1.932h75.053a37.527 37.527 0 00-75.053 0z"></path></g></g><g data-name="Group 562"><path data-name="Path 5357" d="M38.384 7.693v37.7h21.783v-37.7a38.493 38.493 0 00-21.783 0z" fill="#f7f051"></path><path data-name="Path 5358" d="M61.133 46.364H37.415V6.97l.693-.2a39.651 39.651 0 0122.329 0l.693.2zM39.35 44.432h19.851V8.423a37.687 37.687 0 00-19.851 0z"></path></g><g data-name="Group 563"><path data-name="Rectangle 74" d="M5.203 45.166h88.145a2.528 2.528 0 012.527 2.528v4.6a.331.331 0 01-.331.331H3.006a.331.331 0 01-.331-.336v-4.6a2.528 2.528 0 012.528-2.523z" fill="#f7f051"></path><path data-name="Path 5359" d="M93.868 53.585H4.683a2.977 2.977 0 01-2.974-2.973v-1.43a4.988 4.988 0 014.983-4.983H91.86a4.988 4.988 0 014.982 4.983v1.43a2.977 2.977 0 01-2.974 2.973zM6.692 46.132a3.054 3.054 0 00-3.051 3.05v1.43a1.043 1.043 0 001.042 1.041h89.185a1.043 1.043 0 001.042-1.041v-1.43a3.053 3.053 0 00-3.05-3.05z"></path></g><g data-name="Group 564"><path data-name="Rectangle 75" d="M43.266 2.676h12.019a.749.749 0 01.749.749v21.2a2.524 2.524 0 01-2.524 2.524h-8.469a2.524 2.524 0 01-2.524-2.527V3.425a.749.749 0 01.749-.749z" fill="#f7f051"></path><path data-name="Path 5360" d="M50.572 28.112h-2.593a6.435 6.435 0 01-6.428-6.428V4.298a2.592 2.592 0 012.588-2.589h10.276a2.592 2.592 0 012.588 2.589v17.386a6.434 6.434 0 01-6.431 6.428zm-6.433-24.47a.656.656 0 00-.656.656v17.386a4.5 4.5 0 004.5 4.5h2.593a4.5 4.5 0 004.5-4.5V4.298a.656.656 0 00-.656-.656z"></path></g></g><g data-name="Group 566" transform="translate(-2871.285 -348.988)"><circle data-name="Ellipse 1437" cx="14.887" cy="14.887" r="14.887" transform="translate(2905.673 370.507)" fill="#a4a4a4"></circle><path data-name="Path 5361" d="M2920.561 401.248a15.854 15.854 0 1115.853-15.853 15.872 15.872 0 01-15.853 15.853zm0-29.774a13.921 13.921 0 1013.921 13.921 13.938 13.938 0 00-13.921-13.921z"></path></g><g data-name="Group 567" transform="translate(-2871.285 -348.988)"><circle data-name="Ellipse 1438" cx="10.023" cy="10.023" r="10.023" transform="translate(2910.538 375.372)" fill="#fff"></circle><path data-name="Path 5362" d="M2920.561 396.383a10.988 10.988 0 1110.988-10.988 11 11 0 01-10.988 10.988zm0-20.045a9.056 9.056 0 109.056 9.057 9.067 9.067 0 00-9.056-9.057z"></path></g></g></g></g></g></g></g></g></g></g></g></g></svg>