<svg baseProfile="basic" xmlns="http://www.w3.org/2000/svg" viewBox="0 0 65 65" class=""><path fill="#FFF" d="M32.5 1C15.1 1 1 15.1 1 32.5S15.1 64 32.5 64 64 49.9 64 32.5 49.9 1 32.5 1zm14.43 21.95v19.09c0 .14 0 .28-.01.41-.01.26.08.48.27.66.89.87 1.77 1.74 2.66 2.6.22.21.08.46.13.71H36.23c-.04-.33-.03-.6.25-.85.86-.79 1.68-1.62 2.52-2.43a.98.98 0 00.33-.77v-15.8c0-.03 0-.06-.04-.1-.03.07-.06.13-.09.2-2.55 6.48-5.11 12.96-7.65 19.45-.07.18-.15.27-.36.24-.19-.02-.39-.02-.59 0-.17.01-.25-.05-.32-.21-.83-1.83-1.67-3.65-2.5-5.47-2.14-4.67-4.28-9.34-6.42-14-.03-.06-.06-.13-.15-.19v13.06c0 .32 0 .66.07.97.05.24.19.48.34.67 1.18 1.44 2.36 2.89 3.56 4.31.23.27.23.54.21.86H14.96c-.03-.32-.02-.59.21-.87 1.19-1.41 2.36-2.85 3.54-4.27.33-.4.47-.86.41-1.38-.01-.09-.01-.19-.01-.28 0-5.04-.01-10.08.01-15.12 0-.56-.15-.99-.52-1.42-1-1.16-1.95-2.36-2.95-3.52-.24-.28-.3-.56-.24-.9.07 0 .14-.01.21-.01 3.24 0 6.49 0 9.73-.01.18 0 .25.06.32.21 2.54 5.58 5.09 11.17 7.63 16.75.04.08.07.15.13.27.13-.33.25-.62.37-.91 2.15-5.37 4.3-10.74 6.46-16.11.05-.13.1-.21.27-.21 3.1.01 6.21.01 9.31.01.06 0 .11.01.18.01.04.33.03.59-.25.85-.88.8-1.73 1.64-2.59 2.46-.19.18-.28.4-.27.66.01.12.02.25.02.38z"></path></svg>