<svg baseProfile="basic" xmlns="http://www.w3.org/2000/svg" viewBox="0 0 65 65" class=""><path fill-rule="evenodd" clip-rule="evenodd" fill="#FFF" d="M32.5 1C15.1 1 1 15.1 1 32.5S15.1 64 32.5 64 64 49.9 64 32.5 49.9 1 32.5 1zm17.41 24.76c.02.36.02.72.02 1.08 0 11.05-8.41 23.8-23.8 23.8-4.72 0-9.12-1.38-12.82-3.76a16.8 16.8 0 0012.39-3.46 8.372 8.372 0 01-7.81-5.81 8.4 8.4 0 003.77-.14c-3.83-.77-6.71-4.15-6.71-8.2v-.11c1.13.63 2.42 1 3.79 1.05a8.345 8.345 0 01-3.72-6.96c0-1.53.41-2.97 1.13-4.2a23.745 23.745 0 0017.24 8.74c-.14-.61-.22-1.25-.22-1.91 0-4.62 3.75-8.36 8.37-8.36 2.41 0 4.58 1.02 6.11 2.64 1.91-.38 3.69-1.07 5.31-2.03a8.436 8.436 0 01-3.68 4.63c1.69-.2 3.3-.65 4.8-1.32a17.124 17.124 0 01-4.17 4.32z"></path></svg>