<svg baseProfile="basic" xmlns="http://www.w3.org/2000/svg" viewBox="0 0 422.37 100" style="height:110px" class=""><g fill="#FFF"><path d="M122.87 66.21c.54.54 1.21 1.01 1.96 1.35.74.34 1.48.47 2.29.4h29.9v-4.05h-29.9c-.54 0-1.01-.2-1.42-.54-.34-.4-.54-.88-.54-1.42V37.93c0-.27.07-.47.13-.74.07-.2.27-.47.4-.61.2-.2.4-.34.61-.47.27-.13.47-.13.74-.13H157v-4.05h-29.9c-.81 0-1.55.13-2.29.47-.74.27-1.42.74-1.96 1.28s-1.01 1.21-1.28 1.96c-.27.74-.47 1.48-.47 2.29v24.03c0 .81.13 1.55.4 2.29.36.74.83 1.42 1.37 1.96zm57.36-34.29v36.04h32.93v-4.05h-28.82V51.97h23.15v-4.12h-23.15V35.91h28.82v-4.05h-32.93v.06zm56.09 36.04V31.99h30.03c1.62 0 3.1.67 4.25 1.75 1.15 1.15 1.75 2.63 1.75 4.25v10.53c0 .81-.13 1.55-.47 2.29-.27.74-.74 1.42-1.28 1.96s-1.21 1.01-1.96 1.28c-.74.27-1.48.47-2.29.4h-5.53l11.34 13.36v.07h-5.33l-11.27-13.43-15.18-.07v13.43h-4.05v.15zm6-17.48h24.03c.27 0 .47-.07.74-.13.2-.07.47-.27.61-.4.2-.2.34-.4.4-.61.07-.2.13-.47.13-.74V38c0-.27-.07-.47-.13-.74-.07-.2-.27-.47-.4-.61-.13-.2-.4-.34-.61-.47-.2-.13-.47-.13-.74-.13h-24.03c-.27 0-.54.07-.74.13-.27.13-.47.27-.61.47-.2.2-.34.4-.4.61-.07.2-.13.47-.13.74v10.53c0 .27.07.47.13.74.07.2.2.47.4.61.34.4.81.6 1.35.6zm67.42-14.51v31.99h4.05V35.97h15.99v-4.05h-36.04v4.05h16zm41.44-4.05h4.12v36.04h-4.12V31.92zm28.81 0v36.04h4.12V51.97h11.61l13.43 15.99h5.26v-.07L399.3 49.94l15.05-17.95v-.07h-5.2l-13.43 15.99h-11.61V31.92h-4.12z"></path><path d="M355.36 68.03h-4.25V31.86h4.25v36.17zm-4.12-.14h3.98v-35.9h-3.98v35.9zm63.24.14h-5.33L395.72 52.1h-11.54v16h-4.25V31.92h4.25v15.99h11.47l13.43-15.99h5.33v.13L399.36 50l15.12 17.95v.08zm-5.26-.14h5.13l-15.12-17.95.07-.07 14.98-17.88h-5.06l-13.43 15.99h-11.74V31.99h-3.98v35.9h3.98V51.9h11.74l13.43 15.99zm-95.36.14h-4.18V36.04h-15.99v-4.18h36.17v4.18h-15.99v31.99h-.01zm-4.05-.14h3.91V35.91h15.99V32h-35.9v3.91h15.99v31.98zm-37.59.14h-5.47l-11.27-13.36-15.05-.07v13.5h-4.18V31.92h30.1c1.62 0 3.17.67 4.25 1.82 1.15 1.15 1.75 2.7 1.82 4.25v10.6c0 .81-.14 1.62-.47 2.36-.34.74-.74 1.42-1.35 1.96-.54.54-1.21 1.01-1.96 1.35-.74.34-1.55.47-2.36.47h-5.33l11.2 13.29.07.01zm-5.4-.14h5.2l-11.34-13.43h5.67c.74 0 1.55-.13 2.29-.47.74-.27 1.35-.74 1.89-1.28s1.01-1.21 1.28-1.96c.27-.74.47-1.48.47-2.29V37.93c0-1.55-.67-3.04-1.75-4.18-1.08-1.08-2.63-1.75-4.18-1.75h-29.96v35.9h3.91V54.4l15.25.07 11.27 13.42zm-53.59.14h-33.07V31.86h33.07v4.18h-28.82v11.74h23.15v4.25h-23.15v11.81h28.82v4.19zm-32.86-.14h32.73v-3.91h-28.82V51.9h23.15v-3.98h-23.15V35.84h28.82v-3.91h-32.73v35.96zm-23.22.14h-30.03c-.81 0-1.62-.13-2.36-.47s-1.42-.74-1.96-1.35a6.703 6.703 0 01-1.35-1.96c-.34-.74-.47-1.55-.47-2.36V37.86c0-.81.13-1.62.47-2.36s.74-1.42 1.35-1.96c.54-.54 1.21-1.01 1.96-1.35.74-.34 1.55-.47 2.36-.47h30.03v4.18h-30.03c-.27 0-.47.07-.74.13-.2.07-.47.27-.61.4a.95.95 0 00-.4.61c-.07.2-.13.47-.13.67v24.03c0 .27.07.47.13.74.07.2.2.47.4.61.2.2.4.34.61.4.2.07.47.13.74.13h30.03v4.41zm-34.21-1.89c.54.54 1.21 1.01 1.96 1.28s1.48.47 2.29.4h29.83v-3.91h-29.9c-.54 0-1.08-.2-1.48-.54-.4-.4-.61-.94-.61-1.48V37.86c0-.27.07-.54.13-.74.07-.27.27-.47.4-.67.2-.2.4-.34.67-.47.27-.13.54-.13.81-.13h29.83v-3.91h-29.76c-.81 0-1.55.13-2.29.47-.74.27-1.35.74-1.96 1.28-.54.54-1.01 1.21-1.28 1.96-.27.74-.47 1.48-.47 2.29v24.03c0 .81.13 1.55.4 2.29.42.73.89 1.34 1.43 1.88zm143.41-15.59h-24.03c-.54 0-1.08-.2-1.48-.61-.2-.2-.34-.4-.4-.67-.07-.27-.13-.47-.13-.74V38c0-.27.07-.54.13-.74.07-.27.27-.47.4-.67.2-.2.4-.34.67-.47.27-.13.54-.13.81-.13h24.03c.27 0 .54.07.74.13.27.13.47.27.61.47.2.2.34.4.4.67s.13.47.13.74v10.53c0 .27-.07.54-.13.74-.07.27-.27.47-.4.67-.2.2-.4.34-.67.4-.21.14-.41.21-.68.21zm-24.03-14.44c-.27 0-.47.07-.74.13-.2.07-.47.27-.61.4-.2.2-.34.4-.4.61-.07.2-.13.47-.13.67v10.53c0 .27.07.47.13.67.07.2.2.4.4.61.34.34.88.54 1.35.54h24.03c.27 0 .47-.07.67-.13s.4-.2.61-.4c.2-.13.34-.34.4-.61.07-.2.13-.47.13-.67V37.93c0-.27-.07-.47-.13-.67-.07-.2-.2-.4-.4-.61a.95.95 0 00-.61-.4c-.2-.07-.47-.13-.74-.13l-23.96-.01z"></path><g><path d="M51.99 1.5L82 10.6c.43.14.85.57 1 1s.28.85.14 1.42c-.14.43-.43.85-.85 1.14-.43.28-.85.28-1.28.28L51.99 5.77l-28.87 8.68c-.43.14-1 0-1.28-.28-.43-.28-.71-.57-.85-1.14-.14-.43-.14-1 .14-1.42.14-.43.57-.71 1-1L51.99 1.5z"></path><path d="M95.37 15.87c0-.43-.28-.85-.57-1.14-.28-.28-.71-.43-1.14-.57-.43 0-.85 0-1.14.14-.43.14-.71.43-.85.85l-17.35 34H29.8L12.45 15.3c-.14-.28-.43-.57-.85-.85-.28-.14-.71-.28-1.14-.28-.43 0-.85.28-1.14.57-.28.28-.57.71-.57 1.14a86.01 86.01 0 001.71 33c4.27 16.93 15.08 36.7 40.68 49.21l.85.43.85-.43c25.6-12.52 36.55-32.29 40.82-49.21 2.7-10.83 3.27-21.92 1.71-33.01zM14.16 48.01c-1.99-8.25-2.84-16.78-2.28-25.32l15.08 29.44 20.48 39.68C26.81 79.87 17.85 62.8 14.16 48.01zm37.83 44.23l-20.2-39.11h40.39L51.99 92.24zm37.83-44.23c-3.7 14.93-12.8 32-33.42 43.81l20.62-39.68L92.1 22.69c.57 8.39-.15 16.93-2.28 25.32z"></path></g></g></svg>