<svg baseProfile="basic" xmlns="http://www.w3.org/2000/svg" viewBox="0 0 65 65" class=""><g fill="#FFF"><path d="M25.91 30.45c-1.99 0-3.57 1.8-3.57 4.01s1.61 4.01 3.57 4.01c1.99 0 3.57-1.8 3.57-4.01.03-2.2-1.57-4.01-3.57-4.01zM39.12 30.45c-1.99 0-3.57 1.8-3.57 4.01s1.61 4.01 3.57 4.01c2.01 0 3.57-1.8 3.57-4.01.03-2.2-1.57-4.01-3.57-4.01z"></path><path d="M32.5 1C15.1 1 1 15.1 1 32.5S15.1 64 32.5 64 64 49.9 64 32.5 49.9 1 32.5 1zm19.71 41.98c0 .04-.02.07-.05.09-3.4 2.5-6.69 4.01-9.94 5.02-.05.02-.11 0-.14-.05-.75-1.04-1.43-2.15-2.03-3.3-.03-.07 0-.15.07-.18 1.08-.41 2.11-.9 3.1-1.48.08-.05.08-.16.01-.21-.21-.16-.42-.32-.62-.48-.04-.03-.09-.04-.13-.02-6.43 2.97-13.47 2.97-19.98 0-.04-.02-.09-.01-.13.02-.2.16-.41.33-.62.48-.07.05-.07.17.01.21.99.57 2.02 1.07 3.1 1.48.07.03.1.11.07.17-.58 1.16-1.27 2.26-2.03 3.3-.03.04-.09.06-.14.05-3.23-1-6.53-2.52-9.93-5.02a.12.12 0 01-.05-.09c-.69-7.42.72-14.93 5.87-22.63a.12.12 0 01.05-.05 32.95 32.95 0 018.09-2.51c.05-.01.1.02.13.06.35.62.75 1.42 1.02 2.07 2.99-.46 6.03-.46 9.09 0 .27-.64.66-1.45 1.01-2.07a.12.12 0 01.13-.06c2.84.49 5.56 1.35 8.09 2.51.02.01.04.03.05.05 4.51 6.61 6.73 14.06 5.9 22.64z"></path></g></svg>