<svg baseProfile="basic" xmlns="http://www.w3.org/2000/svg" xmlns:xlink="http://www.w3.org/1999/xlink" viewBox="0 0 1600 510" class="mi-bg-mountain-front"><g fill="#141414" stroke="#000" stroke-width="3" stroke-linejoin="round" stroke-miterlimit="10"><path d="M-153.01 1221.89V-94.31c1.26-.13 2.54-.19 3.83-.19h0c20.75 0 37.72 16.98 37.72 37.72v35.11c8.55 9.21 13.83 21.49 13.83 34.97v30.94c4.47 4.25 8.39 9.04 11.71 14.27 1.53-3.54 3.68-6.75 6.27-9.54V26.05c0-13.54 11.08-24.63 24.62-24.63h0c13.54 0 24.62 11.08 24.62 24.63v22.92c5.58 6.01 9.03 14.03 9.03 22.83V92a49.083 49.083 0 0112.61 19.66c6.14-9.51 16.8-15.85 28.9-15.85h0c18.92 0 34.4 15.48 34.4 34.4v6.93c4.11-3.08 9.18-4.92 14.68-4.92 13.54 0 24.62 11.08 24.62 24.62v22.92c5.58 6.01 9.03 14.03 9.03 22.83v20.2c4.21 4.01 7.7 8.76 10.28 14.04.25-.28.5-.56.76-.83v-22.92c0-13.54 11.08-24.62 24.63-24.62 13.54 0 24.62 11.08 24.62 24.62V236c2.6 2.81 4.76 6.03 6.29 9.59a48.967 48.967 0 0113.9-24.11v-20.2c0-8.8 3.45-16.81 9.03-22.83v-22.92c0-13.54 11.08-24.63 24.63-24.63 13.54 0 24.62 11.08 24.62 24.63v22.92a33.69 33.69 0 018.07 15 24.33 24.33 0 0110.47-2.38c13.54 0 24.62 11.08 24.62 24.62v22.92c5.58 6.01 9.03 14.03 9.03 22.83v20.2c.96.92 1.87 1.87 2.76 2.86 1.29-6.02 4.22-11.44 8.28-15.81v-22.92c0-13.54 11.08-24.63 24.62-24.63h0c13.54 0 24.62 11.08 24.62 24.63v22.92c1.66 1.79 3.13 3.75 4.37 5.86v-65.87c0-18.92 15.48-34.4 34.4-34.4h0c18.92 0 34.4 15.48 34.4 34.4v10.09c18.14.21 32.98 14.63 33.91 32.59 6.25-6.39 14.95-10.38 24.54-10.38 4.98 0 9.71 1.1 13.99 3.02v-48.4c0-18.92 15.48-34.4 34.4-34.4h0c18.92 0 34.4 15.48 34.4 34.4v9.8c4.62-2.32 9.8-3.65 15.3-3.65 15.81 0 29.18 10.83 33.16 25.42 1.98-.36 4-.57 6.07-.57 4.61 0 9.01.93 13.04 2.6 3.5-9.15 10.79-16.45 19.95-19.94v-16.27c0-18.92 15.48-34.4 34.4-34.4h0c18.92 0 34.4 15.48 34.4 34.4v.49c3.7.85 7.17 2.3 10.32 4.25 3.97-1.61 8.29-2.52 12.83-2.52 18.92 0 34.4 15.48 34.4 34.4v19.22c5.56-11.56 17.37-19.61 30.99-19.61 2.56 0 5.05.31 7.45.84V227c0-18.92 15.48-34.4 34.4-34.4h0c18.92 0 34.4 15.48 34.4 34.4v4.83c4-8.33 11.25-14.82 20.09-17.8 5.15-12.53 17.49-21.43 31.82-21.43h0c18.92 0 34.4 15.48 34.4 34.4v34.65c4.62-2.32 9.8-3.65 15.3-3.65 3.53 0 6.93.54 10.14 1.54.78-18.24 15.9-32.93 34.32-32.93h0c2.07 0 4.1.22 6.07.57 3.98-14.6 17.35-25.42 33.16-25.42h0c5.49 0 10.68 1.34 15.3 3.65v-9.8c0-18.92 15.48-34.4 34.4-34.4 18.92 0 34.4 15.48 34.4 34.4V244a33.94 33.94 0 0113.99-3.02h0c9.59 0 18.29 3.99 24.54 10.38.93-17.96 15.78-32.38 33.91-32.59v-10.09c0-18.92 15.48-34.4 34.4-34.4 18.92 0 34.4 15.48 34.4 34.4v65.87c1.24-2.11 2.71-4.08 4.37-5.86v-22.92c0-13.54 11.08-24.63 24.62-24.63 13.54 0 24.63 11.08 24.63 24.63v22.92c4.05 4.37 6.98 9.79 8.28 15.81.88-.99 1.8-1.95 2.76-2.86v-20.2c0-8.8 3.45-16.81 9.03-22.83v-22.92c0-13.54 11.08-24.62 24.62-24.62 3.74 0 7.28.87 10.47 2.38 1.37-5.7 4.2-10.83 8.07-15v-22.92c0-13.54 11.08-24.63 24.62-24.63s24.62 11.08 24.62 24.63v22.92c5.58 6.01 9.03 14.03 9.03 22.83v20.2c6.76 6.44 11.67 14.76 13.9 24.11 1.54-3.56 3.69-6.79 6.29-9.59v-22.92c0-13.54 11.08-24.62 24.62-24.62s24.62 11.08 24.62 24.62V236c.26.27.51.55.76.83a49.066 49.066 0 0110.28-14.04v-20.2c0-8.8 3.45-16.81 9.03-22.83v-22.92c0-13.54 11.08-24.62 24.62-24.62 5.5 0 10.57 1.85 14.68 4.92v-6.93c0-18.92 15.48-34.4 34.4-34.4 12.09 0 22.76 6.34 28.9 15.85 2.58-7.55 6.95-14.26 12.61-19.66V71.8c0-8.8 3.45-16.81 9.03-22.83V26.05c0-13.54 11.08-24.63 24.62-24.63 13.54 0 24.63 11.08 24.63 24.63v22.92c2.59 2.79 4.74 6 6.27 9.54a75.472 75.472 0 0111.71-14.27V13.3c0-13.48 5.28-25.76 13.83-34.97v-35.11c0-20.75 16.98-37.72 37.72-37.72.26 0 .52.03.78.04v1316.35H-153.01z"></path><path d="M1316.85 328.24v-42.67c0-7.82-6.4-14.22-14.22-14.22h-2.84c-7.82 0-14.22 6.4-14.22 14.22v42.67M1565.01 282.14v-27.56c0-11.28-9.22-20.5-20.5-20.5h0c-11.28 0-20.5 9.22-20.5 20.5v27.56"></path><path d="M1600.32 324.32v-27.56c0-11.28-9.22-20.5-20.5-20.5h0c-11.28 0-20.5 9.22-20.5 20.5v27.56M1442.91 245.85v-25.09c0-9.94-8.13-18.07-18.07-18.07h0c-9.94 0-18.07 8.13-18.07 18.07v25.09M1158.47 285.09V260c0-9.94-8.13-18.07-18.07-18.07h0c-9.94 0-18.07 8.13-18.07 18.07v25.09M1067.25 271.36v-25.09c0-9.94-8.13-18.07-18.07-18.07h0c-9.94 0-18.07 8.13-18.07 18.07v25.09M1292.84 367.48v-25.09c0-9.94-8.13-18.07-18.07-18.07h0c-9.94 0-18.07 8.13-18.07 18.07v25.09"></path><path d="M1259.49 333.15v-25.09c0-9.94-8.13-18.07-18.07-18.07h0c-9.94 0-18.07 8.13-18.07 18.07v25.09"></path><g><path d="M338.48 328.24v-42.67c0-7.82 6.4-14.22 14.22-14.22h2.84c7.82 0 14.22 6.4 14.22 14.22v42.67M-14.63 291.95v-77.51c0-16.17 13.23-29.4 29.4-29.4h0c16.17 0 29.4 13.23 29.4 29.4v37.3M90.32 282.14v-27.56c0-11.28 9.22-20.5 20.5-20.5h0c11.27 0 20.5 9.22 20.5 20.5v27.56"></path><path d="M55.01 324.32v-27.56c0-11.28 9.22-20.5 20.5-20.5h0c11.27 0 20.5 9.22 20.5 20.5v27.56M212.41 245.85v-25.09c0-9.94 8.13-18.07 18.07-18.07h0c9.94 0 18.07 8.13 18.07 18.07v25.09M496.86 285.09V260c0-9.94 8.13-18.07 18.07-18.07h0c9.94 0 18.07 8.13 18.07 18.07v25.09M588.08 271.36v-25.09c0-9.94 8.13-18.07 18.07-18.07h0c9.94 0 18.07 8.13 18.07 18.07v25.09M362.48 367.48v-25.09c0-9.94 8.13-18.07 18.07-18.07h0c9.94 0 18.07 8.13 18.07 18.07v25.09"></path><path d="M395.83 333.15v-25.09c0-9.94 8.13-18.07 18.07-18.07h0c9.94 0 18.07 8.13 18.07 18.07v25.09"></path></g></g><defs><path id="a" d="M-515.96 53.57h2631.92v480.37H-515.96z"></path></defs><clipPath id="b"><use xlink:href="#a" overflow="visible"></use></clipPath><g clip-path="url(#b)"><path fill="#343434" d="M174.21 252.9l93.44 71.03 205.48-51.01s103.28 19.13 104.5 20.92c1.22 1.79 87.69-.85 87.69-.85l36.77 19.12 22.02-8.4 17.85-7.06 60.58 8.66 47.07-.05 54.28-38.93 78.69-16.58s96.15-3.76 99.33-5c3.18-1.23 142.74-22.5 142.74-22.5l47.01-13.44 62.58 40.09v305.9H-135.32L52.36 260.51l63.17 22.02 58.68-29.63z"></path><path fill="none" stroke="#000" stroke-width="3" stroke-miterlimit="10" d="M174.21 252.9l93.44 71.03 205.48-51.01s103.28 19.13 104.5 20.92c1.22 1.79 87.69-.85 87.69-.85l36.77 19.12 22.02-8.4 17.85-7.06 60.58 8.66 47.07-.05 54.28-38.93 78.69-16.58s96.15-3.76 99.33-5c3.18-1.23 142.74-22.5 142.74-22.5l47.01-13.44 62.58 40.09v305.9H-135.32L52.36 260.51l63.17 22.02 58.68-29.63z"></path><path fill="#343434" d="M1881.7 298.64l288.8 169.46 10.14-149.45s103.28 19.13 104.5 20.92c1.22 1.79 87.69-.85 87.69-.85l36.77 19.12 22.02-8.4 17.85-7.06 60.58 8.66 47.07-.05 54.28-38.93 78.69-16.58s96.15-3.76 99.33-5c3.18-1.23 142.74-22.5 142.74-22.5l47.01-13.44 62.58 40.09v191.28H1498.99l149.72-224.16 174.31 66.53 58.68-29.64z"></path><path fill="none" stroke="#000" stroke-width="3" stroke-miterlimit="10" d="M1881.7 298.64l288.8 169.46 10.14-149.45s103.28 19.13 104.5 20.92c1.22 1.79 87.69-.85 87.69-.85l36.77 19.12 22.02-8.4 17.85-7.06 60.58 8.66 47.07-.05 54.28-38.93 78.69-16.58s96.15-3.76 99.33-5c3.18-1.23 142.74-22.5 142.74-22.5l47.01-13.44 62.58 40.09v191.28H1498.99l149.72-224.16 174.31 66.53 58.68-29.64z"></path><path fill="#262626" d="M982.6 249.74l140.89 61.57 311.49 272.31-838.74-21.85s231.23-167.03 231.02-168.46c-.21-1.43-4.48-53.31-4.48-53.31l7.51-33.47 73.86-42.59 78.45-14.2z"></path><path fill="none" stroke="#000" stroke-width="3" stroke-miterlimit="10" d="M982.6 249.74l140.89 61.57 311.49 272.31-838.74-21.85s231.23-167.03 231.02-168.46c-.21-1.43-4.48-53.31-4.48-53.31l7.51-33.47 73.86-42.59 78.45-14.2z"></path><path fill="#262626" d="M1251.81 449.67l393.28 116.97 667.55-56.18-653.55-160.49-77.61-87.38-156.36-70.35-119.09-123.78-113.35 27.8-34.97 52.52-33.29 33.46-42.49 62.51z"></path><path fill="none" stroke="#000" stroke-width="3" stroke-miterlimit="10" d="M1251.81 449.67l393.28 116.97 667.55-56.18-653.55-160.49-77.61-87.38-156.36-70.35-119.09-123.78-113.35 27.8-34.97 52.52-33.29 33.46-42.49 62.51z"></path><g><path fill="#262626" d="M473.14 248.42l87.12 58.09 63.49 22.29 30.38 19.86 35.98 38.76L1043.07 537s-386.69 29.22-389.77 29.22c-3.08 0-435.14 51.59-435.14 51.59s48.17-260.61 50.64-261.14c2.47-.53 54.66-57.09 54.66-57.09l149.68-51.16z"></path><path fill="none" stroke="#000" stroke-width="3" stroke-miterlimit="10" d="M473.14 248.42l87.12 58.09 63.49 22.29 30.38 19.86 35.98 38.76L1043.07 537s-386.69 29.22-389.77 29.22c-3.08 0-435.14 51.59-435.14 51.59s48.17-260.61 50.64-261.14c2.47-.53 54.66-57.09 54.66-57.09l149.68-51.16z"></path></g><g><path fill="#212121" d="M1434.98 583.62l-627.66-19.15 276.28-191.76 52.11-74.76 60.97-52.66 68.26-25.13 75.9 10.53 74.17 47.34 81.49 21.54 54.93 66.85 269.35 186.03z"></path><path fill="none" stroke="#000" stroke-width="3" stroke-miterlimit="10" d="M1434.98 583.62l-627.66-19.15 276.28-191.76 52.11-74.76 60.97-52.66 68.26-25.13 75.9 10.53 74.17 47.34 81.49 21.54 54.93 66.85 269.35 186.03z"></path></g><g><path fill="#1F1F1F" d="M1065.26 599.86l-537.98-170.9s-28.69-40.02-29.96-41.88c-1.27-1.87-46.23-27.38-46.23-27.38l-119.72-93.16-57.77 16.45-57.1 74.21-97.04 232.19 109.16 5.79 836.64 4.68z"></path><path fill="none" stroke="#000" stroke-width="3" stroke-miterlimit="10" d="M1065.26 599.86l-537.98-170.9s-28.69-40.02-29.96-41.88c-1.27-1.87-46.23-27.38-46.23-27.38l-119.72-93.16-57.77 16.45-57.1 74.21-97.04 232.19 109.16 5.79 836.64 4.68z"></path></g><g><path fill="#1F1F1F" d="M-422.17 517.92l136.33-43.22s28.69-40.02 29.96-41.88c1.27-1.87 46.23-27.38 46.23-27.38l119.72-93.16 57.77 16.45 57.1 74.21 40.44 110.47-71.32.51-416.23 4z"></path><path fill="none" stroke="#000" stroke-width="3" stroke-miterlimit="10" d="M-422.17 517.92l136.33-43.22s28.69-40.02 29.96-41.88c1.27-1.87 46.23-27.38 46.23-27.38l119.72-93.16 57.77 16.45 57.1 74.21 40.44 110.47-71.32.51-416.23 4z"></path></g></g><g clip-path="url(#b)"><path fill="#4C4512" stroke="#000" stroke-width="2" stroke-linejoin="round" stroke-miterlimit="10" d="M1209.61 212.65l2.36-20.03-3.55-19.06 7.44-9.52 14.97-3.53 5.74 7.16-13.23 6.38-6.8 6.05 3.94 13.57-3.3 43.62-16.96 6.25 9.39-18.75z"></path><svg class="mi-bg-mountain-front-stone-bling"><path fill="#FAF300" stroke="#000" stroke-width="2" stroke-linejoin="round" stroke-miterlimit="10" d="M1220.48 193.67l-3.94-13.57 6.8-6.05 13.23-6.38-.72 16.67 9.28 42.78-27.95 10.17z"></path></svg></g><path fill="#4C4512" stroke="#000" stroke-width="2" stroke-linejoin="round" stroke-miterlimit="10" d="M596.4 408.62l-1.83-14.12-12.92-4.46-12.09-13.22-21.76 3.08-18.1 20.16 5.38-2.37 32.46-2.08 8.67 7.71 1.73 19.22 12.23 26.45 17.22 5.46v-19.98z"></path><svg class="mi-bg-mountain-front-stone-bling"><path fill="#FAF300" stroke="#000" stroke-width="2" stroke-linejoin="round" stroke-miterlimit="10" d="M577.94 422.54l-1.34-19.45-8.67-7.71-32.85 2.31-5.38 2.37.89 30.54 59.58 18.39z"></path></svg></svg>