<svg baseProfile="basic" xmlns="http://www.w3.org/2000/svg" viewBox="0 0 103 116" style="height:100%" class=""><path fill="#FFF" d="M97.89 27.55L54.67 2.6a6.371 6.371 0 00-6.35 0L5.11 27.55a6.362 6.362 0 00-3.17 5.5v49.9c0 2.26 1.22 4.37 3.17 5.5l43.22 24.95c.96.56 2.06.85 3.17.85 1.11 0 2.21-.29 3.17-.85l43.22-24.95a6.362 6.362 0 003.17-5.5v-49.9c0-2.26-1.22-4.37-3.17-5.5z"></path><path fill="#FFF" d="M6.62 32.09v51.82l44.88 25.91 44.88-25.91V32.09L51.5 6.18z"></path><path d="M51.5 112.7c-.5 0-1-.13-1.44-.39L5.18 86.41a2.897 2.897 0 01-1.44-2.5V32.09c0-1.03.55-1.98 1.44-2.5L50.06 3.68c.89-.51 1.99-.51 2.88 0l44.88 25.91c.89.52 1.44 1.47 1.44 2.5v51.82c0 1.03-.55 1.98-1.44 2.5l-44.88 25.91c-.44.25-.94.38-1.44.38zM9.51 82.24l41.99 24.24 41.99-24.24V33.75L51.5 9.51 9.51 33.75v48.49z"></path><g><path d="M19.55 36.16l-5.09 2.95v40.42l5.09 2.91V54.33l8.73 33.05 4.27 2.58V27.35l-6.06 3.59v28.27zM37.69 23.55v69.16l5.65 3.7V61.48h21.32v-6.96H43.41v-27.6l8.27-4.6 14.17 8.37 3.48-5.16-17.5-10.36zM68.92 32.19l3.11-4.83 18.62 11.82v6.89l-7.93-5.5v43.72l-6.24 3.56v-50.8z"></path></g></svg>