<svg baseProfile="basic" xmlns="http://www.w3.org/2000/svg" viewBox="0 0 151.99 116" style="height:100%" class=""><path stroke="#FFF" stroke-width="4" stroke-miterlimit="10" d="M119.01 4.09H57.3c-3.17 0-5.74 2.58-5.74 5.74v6.42H32.98c-3.17 0-5.74 2.58-5.74 5.74v67.09c0 .08.02.15.02.22 0 .05.01.1.02.15.03.19.08.38.16.55.01.02.03.05.04.07.08.16.17.3.28.44.02.02.03.05.04.07l17.67 20.53c.02.02.04.03.06.05.07.07.14.14.22.2.05.04.09.08.14.11.09.06.18.11.27.16.04.02.09.05.13.07.11.05.23.09.35.12l.09.03c.15.03.31.05.48.05H94.7c3.17 0 5.74-2.58 5.74-5.74v-6.42h18.58c3.17 0 5.74-2.58 5.74-5.74V9.83c0-3.16-2.58-5.74-5.75-5.74z"></path><path fill="#FFF" d="M119.45 97.46H56.87c-1.67 0-3.02-1.35-3.02-3.02V9.4c0-1.67 1.35-3.02 3.02-3.02h62.58c1.67 0 3.02 1.35 3.02 3.02v85.04c0 1.66-1.35 3.02-3.02 3.02z"></path><path d="M119.01 99.75H57.3c-3.17 0-5.74-2.58-5.74-5.74V9.83c0-3.17 2.58-5.74 5.74-5.74h61.71c3.17 0 5.74 2.58 5.74 5.74V94c.01 3.17-2.57 5.75-5.74 5.75zM57.3 8.67c-.64 0-1.16.52-1.16 1.16V94c0 .64.52 1.16 1.16 1.16h61.71c.64 0 1.16-.52 1.16-1.16V9.83c0-.64-.52-1.16-1.16-1.16H57.3z"></path><path d="M111.03 22.78H66.64c-1.26 0-2.29-1.03-2.29-2.29s1.03-2.29 2.29-2.29h44.39a2.29 2.29 0 110 4.58zM111.03 33.41H66.64c-1.26 0-2.29-1.03-2.29-2.29s1.03-2.29 2.29-2.29h44.39a2.29 2.29 0 110 4.58zM111.03 44.05H66.64c-1.26 0-2.29-1.03-2.29-2.29s1.03-2.29 2.29-2.29h44.39a2.29 2.29 0 110 4.58zM111.03 54.69H66.64c-1.26 0-2.29-1.03-2.29-2.29s1.03-2.29 2.29-2.29h44.39a2.29 2.29 0 110 4.58zM111.03 65.32H66.64c-1.26 0-2.29-1.03-2.29-2.29s1.03-2.29 2.29-2.29h44.39a2.29 2.29 0 110 4.58zM111.03 75.96H66.64c-1.26 0-2.29-1.03-2.29-2.29s1.03-2.29 2.29-2.29h44.39a2.29 2.29 0 110 4.58z"></path><g><path fill="#FFF" d="M94.69 18.54H32.98a3.45 3.45 0 00-3.45 3.45v67.09H43.3c2.15 0 3.9 1.75 3.9 3.9v16.63h47.49a3.45 3.45 0 003.45-3.45V22c0-1.91-1.55-3.46-3.45-3.46z"></path><path d="M94.69 111.91H47.2c-1.26 0-2.29-1.03-2.29-2.29V92.99c0-.89-.72-1.61-1.61-1.61H29.52c-1.26 0-2.29-1.03-2.29-2.29V22c0-3.17 2.58-5.74 5.74-5.74h61.71c3.17 0 5.74 2.58 5.74 5.74v84.17c.01 3.16-2.57 5.74-5.73 5.74zm-45.2-4.58h45.2c.64 0 1.16-.52 1.16-1.16V22c0-.64-.52-1.16-1.16-1.16H32.98c-.64 0-1.16.52-1.16 1.16v64.8H43.3c3.41 0 6.19 2.78 6.19 6.19v14.34z"></path></g><g><path d="M47.2 109.62V92.99c0-2.15-1.75-3.9-3.9-3.9H29.52l17.68 20.53z"></path><path d="M47.2 111.91c-.65 0-1.29-.28-1.74-.8L27.79 90.59c-.58-.68-.72-1.63-.35-2.45a2.3 2.3 0 012.08-1.34H43.3c3.41 0 6.19 2.78 6.19 6.19v16.63c0 .96-.6 1.81-1.49 2.15-.27.09-.54.14-.8.14zM34.51 91.38l10.39 12.07V92.99c0-.89-.72-1.61-1.61-1.61h-8.78z"></path></g><g><path d="M86.39 33.41H42c-1.26 0-2.29-1.03-2.29-2.29s1.03-2.29 2.29-2.29h44.39a2.29 2.29 0 110 4.58zM86.39 44.05H42c-1.26 0-2.29-1.03-2.29-2.29s1.03-2.29 2.29-2.29h44.39a2.29 2.29 0 110 4.58zM86.39 54.69H42c-1.26 0-2.29-1.03-2.29-2.29s1.03-2.29 2.29-2.29h44.39a2.29 2.29 0 110 4.58zM86.39 65.32H42c-1.26 0-2.29-1.03-2.29-2.29s1.03-2.29 2.29-2.29h44.39a2.29 2.29 0 110 4.58zM86.39 75.96H47c-1.26 0-2.29-1.03-2.29-2.29s1.03-2.29 2.29-2.29h39.39a2.29 2.29 0 110 4.58zM86.39 86.59H57c-1.26 0-2.29-1.03-2.29-2.29s1.03-2.29 2.29-2.29h29.39c1.26 0 2.29 1.03 2.29 2.29 0 1.27-1.02 2.29-2.29 2.29z"></path></g></svg>