<svg baseProfile="basic" xmlns="http://www.w3.org/2000/svg" viewBox="0 0 65 65" class=""><path fill="#FFF" d="M32.5 1C15.1 1 1 15.1 1 32.5S15.1 64 32.5 64 64 49.9 64 32.5 49.9 1 32.5 1zm16.07 19.54l-5.75 26.89c-.23.96-.61 1.56-1.14 1.82-.54.25-1.2.16-1.99-.3l-8.71-6.43-4.23 4.06c-.28.28-.51.48-.68.59-.28.17-.65.25-1.1.25l.68-8.88L41.8 23.91c.23-.17.3-.32.21-.47-.08-.14-.25-.2-.51-.17s-.52.13-.8.3l-19.96 12.6-8.62-2.71c-.96-.28-1.41-.7-1.35-1.27.06-.56.65-1.07 1.78-1.52l33.57-12.94c.85-.28 1.52-.18 2.03.3.51.5.65 1.33.42 2.51z"></path></svg>