<svg baseProfile="basic" xmlns="http://www.w3.org/2000/svg" viewBox="0 0 335 51" class=""><path fill="#B4B4B4" d="M23.17 15.06h-1.58V3.76H.72c-.4 0-.72.32-.72.72v15.93c0 .4.32.72.72.72h7.97V50.1c0 .4.32.72.72.72h13.03c.4 0 .72-.32.72-.72V15.06z"></path><path fill="#FFF" d="M36.12.17H17.35c-.4 0-.72.32-.72.72v45.62c0 .4.32.72.72.72h13.03c.4 0 .72-.32.72-.72V34.93h5.01c9.6 0 17.38-7.78 17.38-17.38C53.5 7.95 45.72.17 36.12.17z"></path><g fill="#FFF"><path d="M76.9 12.27h15.74v5.57H76.9z"></path><path d="M87.556 12.271v26.33h-5.57v-26.33zM147.14 33.03h15.74v5.57h-15.74zM147.14 12.27h15.74v5.57h-15.74zM147.14 22.65h15.74v5.57h-15.74z"></path><path d="M152.713 12.272v26.33h-5.57v-26.33z"></path><g><path d="M129 12.266v26.33h-5.57v-26.33zM129.03 25.44l9.34-13.17h5.57l-9.33 13.17z"></path><path d="M129.7 25.44l9.33-13.17h5.58l-9.33 13.17z"></path><path d="M129.03 25.44l9.34 13.17h5.57l-9.33-13.17z"></path><path d="M129.7 25.44l9.33 13.17h5.58l-9.33-13.17z"></path></g><g><path d="M170.99 12.267v26.33h-5.57v-26.33zM186.598 12.27V38.6h-5.57V12.27zM181.02 38.61l-10.03-15.82V12.27l10.03 15.82z"></path></g><path d="M107.42 11.96c-7.44 0-13.48 6.03-13.48 13.48 0 7.44 6.03 13.48 13.48 13.48 7.44 0 13.48-6.03 13.48-13.48-.01-7.45-6.04-13.48-13.48-13.48zm0 21.39c-4.37 0-7.91-3.54-7.91-7.91s3.54-7.91 7.91-7.91 7.91 3.54 7.91 7.91c-.01 4.37-3.55 7.91-7.91 7.91z"></path></g><g fill="#FFF"><path d="M319.24 12.27h15.74v5.57h-15.74z"></path><path d="M329.9 12.276v26.33h-5.57v-26.33zM300.18 33.03h15.74v5.57h-15.74zM300.18 12.27h15.74v5.57h-15.74zM300.18 22.65h15.74v5.57h-15.74z"></path><path d="M305.755 12.27V38.6h-5.57V12.27z"></path><g><path d="M280.777 12.27V38.6h-5.57V12.27zM280.81 25.44l9.33-13.17h5.58l-9.33 13.17z"></path><path d="M281.48 25.44l9.33-13.17h5.57l-9.33 13.17z"></path><path d="M280.81 25.44l9.33 13.17h5.58l-9.33-13.17z"></path><path d="M281.48 25.44l9.33 13.17h5.57l-9.33-13.17z"></path></g><path d="M232.23 11.96c-7.44 0-13.48 6.03-13.48 13.48 0 7.44 6.03 13.48 13.48 13.48 7.44 0 13.48-6.03 13.48-13.48-.01-7.45-6.04-13.48-13.48-13.48zm0 21.39c-4.37 0-7.91-3.54-7.91-7.91s3.54-7.91 7.91-7.91 7.91 3.54 7.91 7.91c-.01 4.37-3.55 7.91-7.91 7.91zM266.18 30.74c-1.45 1.59-3.51 2.6-5.83 2.6-4.37 0-7.91-3.54-7.91-7.91s3.54-7.91 7.91-7.91c2.32 0 4.39 1.02 5.83 2.61h6.56c-2.06-4.81-6.83-8.19-12.4-8.19-7.44 0-13.48 6.03-13.48 13.48 0 7.44 6.03 13.48 13.48 13.48 5.56 0 10.33-3.37 12.39-8.17h-6.55zM207.46 12.27c-.16 0-.31.02-.46.02v-.02h-9.11V38.6h5.57v-7.18H207v-.02c.15.01.31.02.46.02 5.29 0 9.58-4.29 9.58-9.58s-4.29-9.57-9.58-9.57zm-.33 14.25h-3.67v-8.67h3.67c2.39 0 4.34 1.94 4.34 4.34a4.347 4.347 0 01-4.34 4.33z"></path></g></svg>